<?xml version="1.0" encoding="utf-8" standalone="no"?>
<!DOCTYPE svg PUBLIC "-//W3C//DTD SVG 1.1//EN"
  "http://www.w3.org/Graphics/SVG/1.1/DTD/svg11.dtd">
<svg xmlns:xlink="http://www.w3.org/1999/xlink" width="861.960772pt" height="230.366719pt" viewBox="0 0 861.960772 230.366719" xmlns="http://www.w3.org/2000/svg" version="1.1">
 <metadata>
  <rdf:RDF xmlns:dc="http://purl.org/dc/elements/1.1/" xmlns:cc="http://creativecommons.org/ns#" xmlns:rdf="http://www.w3.org/1999/02/22-rdf-syntax-ns#">
   <cc:Work>
    <dc:type rdf:resource="http://purl.org/dc/dcmitype/StillImage"/>
    <dc:date>2024-06-17T11:20:37.983241</dc:date>
    <dc:format>image/svg+xml</dc:format>
    <dc:creator>
     <cc:Agent>
      <dc:title>Matplotlib v3.7.2, https://matplotlib.org/</dc:title>
     </cc:Agent>
    </dc:creator>
   </cc:Work>
  </rdf:RDF>
 </metadata>
 <defs>
  <style type="text/css">*{stroke-linejoin: round; stroke-linecap: butt}</style>
 </defs>
 <g id="figure_1">
  <g id="patch_1">
   <path d="M 0 230.366719 
L 861.960772 230.366719 
L 861.960772 0 
L 0 0 
z
" style="fill: #ffffff"/>
  </g>
  <g id="axes_1">
   <g id="patch_2">
    <path d="M 64.810094 179.265125 
L 281.810094 179.265125 
L 281.810094 12.945125 
L 64.810094 12.945125 
L 64.810094 179.265125 
z
" style="fill: none"/>
   </g>
   <g id="matplotlib.axis_1">
    <g id="xtick_1">
     <g id="line2d_1">
      <defs>
       <path id="m29f43368ea" d="M 0 0 
L 0 3 
" style="stroke: #878787; stroke-width: 1.1"/>
      </defs>
      <g>
       <use xlink:href="#m29f43368ea" x="74.67373" y="179.265125" style="fill: #878787; stroke: #878787; stroke-width: 1.1"/>
      </g>
     </g>
     <g id="text_1">
      <!-- $\mathdefault{10^{-2}}$ -->
      <g style="fill: #4a4a4a" transform="translate(59.47373 194.955375) scale(0.152 -0.152)">
       <defs>
        <path id="Avenir-Book-31" d="M 2227 0 
L 1766 0 
L 1766 3955 
L 954 3238 
L 666 3584 
L 1818 4531 
L 2227 4531 
L 2227 0 
z
" transform="scale(0.015625)"/>
        <path id="Avenir-Book-30" d="M 1779 4186 
Q 1408 4186 1193 3987 
Q 979 3789 870 3494 
Q 762 3200 733 2867 
Q 704 2534 704 2266 
Q 704 1997 733 1664 
Q 762 1331 870 1036 
Q 979 742 1193 544 
Q 1408 346 1779 346 
Q 2150 346 2364 544 
Q 2579 742 2688 1036 
Q 2797 1331 2825 1664 
Q 2854 1997 2854 2266 
Q 2854 2534 2825 2867 
Q 2797 3200 2688 3494 
Q 2579 3789 2364 3987 
Q 2150 4186 1779 4186 
z
M 1779 4608 
Q 2266 4608 2566 4384 
Q 2867 4160 3033 3814 
Q 3200 3469 3257 3056 
Q 3315 2643 3315 2266 
Q 3315 1888 3257 1475 
Q 3200 1062 3033 716 
Q 2867 371 2566 147 
Q 2266 -77 1779 -77 
Q 1293 -77 992 147 
Q 691 371 524 716 
Q 358 1062 300 1475 
Q 243 1888 243 2266 
Q 243 2643 300 3056 
Q 358 3469 524 3814 
Q 691 4160 992 4384 
Q 1293 4608 1779 4608 
z
" transform="scale(0.015625)"/>
        <path id="Avenir-Book-2212" d="M 3763 1747 
L 499 1747 
L 499 2131 
L 3763 2131 
L 3763 1747 
z
" transform="scale(0.015625)"/>
        <path id="Avenir-Book-32" d="M 3187 0 
L 307 0 
L 307 531 
L 2112 2368 
Q 2214 2470 2316 2585 
Q 2419 2701 2502 2829 
Q 2586 2957 2637 3097 
Q 2688 3238 2688 3392 
Q 2688 3578 2621 3725 
Q 2554 3872 2432 3974 
Q 2310 4077 2150 4131 
Q 1990 4186 1811 4186 
Q 1466 4186 1222 3994 
Q 979 3802 909 3475 
L 422 3526 
Q 518 4032 886 4320 
Q 1254 4608 1779 4608 
Q 2054 4608 2300 4534 
Q 2547 4461 2736 4313 
Q 2925 4166 3037 3945 
Q 3149 3725 3149 3430 
Q 3149 3168 3069 2950 
Q 2989 2733 2861 2541 
Q 2733 2349 2569 2176 
Q 2406 2003 2234 1837 
L 806 422 
L 3187 422 
L 3187 0 
z
" transform="scale(0.015625)"/>
       </defs>
       <use xlink:href="#Avenir-Book-31" transform="translate(0 0.842187)"/>
       <use xlink:href="#Avenir-Book-30" transform="translate(55.599991 0.842187)"/>
       <use xlink:href="#Avenir-Book-2212" transform="translate(112.018927 33.6) scale(0.7)"/>
       <use xlink:href="#Avenir-Book-32" transform="translate(158.638921 33.6) scale(0.7)"/>
      </g>
     </g>
    </g>
    <g id="xtick_2">
     <g id="line2d_2">
      <g>
       <use xlink:href="#m29f43368ea" x="114.128276" y="179.265125" style="fill: #878787; stroke: #878787; stroke-width: 1.1"/>
      </g>
     </g>
     <g id="text_2">
      <!-- $\mathdefault{10^{-1}}$ -->
      <g style="fill: #4a4a4a" transform="translate(98.928276 194.955375) scale(0.152 -0.152)">
       <use xlink:href="#Avenir-Book-31" transform="translate(0 0.684375)"/>
       <use xlink:href="#Avenir-Book-30" transform="translate(55.599991 0.684375)"/>
       <use xlink:href="#Avenir-Book-2212" transform="translate(112.018927 33.442188) scale(0.7)"/>
       <use xlink:href="#Avenir-Book-31" transform="translate(158.638921 33.442188) scale(0.7)"/>
      </g>
     </g>
    </g>
    <g id="xtick_3">
     <g id="line2d_3">
      <g>
       <use xlink:href="#m29f43368ea" x="153.582821" y="179.265125" style="fill: #878787; stroke: #878787; stroke-width: 1.1"/>
      </g>
     </g>
     <g id="text_3">
      <!-- $\mathdefault{10^{0}}$ -->
      <g style="fill: #4a4a4a" transform="translate(141.878821 194.955375) scale(0.152 -0.152)">
       <use xlink:href="#Avenir-Book-31" transform="translate(0 0.842187)"/>
       <use xlink:href="#Avenir-Book-30" transform="translate(55.599991 0.842187)"/>
       <use xlink:href="#Avenir-Book-30" transform="translate(112.018927 33.6) scale(0.7)"/>
      </g>
     </g>
    </g>
    <g id="xtick_4">
     <g id="line2d_4">
      <g>
       <use xlink:href="#m29f43368ea" x="193.037366" y="179.265125" style="fill: #878787; stroke: #878787; stroke-width: 1.1"/>
      </g>
     </g>
     <g id="text_4">
      <!-- $\mathdefault{10^{1}}$ -->
      <g style="fill: #4a4a4a" transform="translate(181.333366 194.955375) scale(0.152 -0.152)">
       <use xlink:href="#Avenir-Book-31" transform="translate(0 0.684375)"/>
       <use xlink:href="#Avenir-Book-30" transform="translate(55.599991 0.684375)"/>
       <use xlink:href="#Avenir-Book-31" transform="translate(112.018927 33.442188) scale(0.7)"/>
      </g>
     </g>
    </g>
    <g id="xtick_5">
     <g id="line2d_5">
      <g>
       <use xlink:href="#m29f43368ea" x="232.491912" y="179.265125" style="fill: #878787; stroke: #878787; stroke-width: 1.1"/>
      </g>
     </g>
     <g id="text_5">
      <!-- $\mathdefault{10^{2}}$ -->
      <g style="fill: #4a4a4a" transform="translate(220.787912 194.955375) scale(0.152 -0.152)">
       <use xlink:href="#Avenir-Book-31" transform="translate(0 0.842187)"/>
       <use xlink:href="#Avenir-Book-30" transform="translate(55.599991 0.842187)"/>
       <use xlink:href="#Avenir-Book-32" transform="translate(112.018927 33.6) scale(0.7)"/>
      </g>
     </g>
    </g>
    <g id="xtick_6">
     <g id="line2d_6">
      <g>
       <use xlink:href="#m29f43368ea" x="271.946457" y="179.265125" style="fill: #878787; stroke: #878787; stroke-width: 1.1"/>
      </g>
     </g>
     <g id="text_6">
      <!-- $\mathdefault{10^{3}}$ -->
      <g style="fill: #4a4a4a" transform="translate(260.242457 194.955375) scale(0.152 -0.152)">
       <defs>
        <path id="Avenir-Book-33" d="M 1306 2586 
L 1542 2586 
Q 1741 2586 1923 2630 
Q 2106 2675 2240 2774 
Q 2374 2874 2454 3034 
Q 2534 3194 2534 3418 
Q 2534 3782 2313 3984 
Q 2093 4186 1696 4186 
Q 1408 4186 1190 4058 
Q 973 3930 832 3686 
L 429 3891 
Q 634 4256 950 4432 
Q 1267 4608 1683 4608 
Q 1952 4608 2189 4531 
Q 2426 4454 2605 4304 
Q 2784 4154 2889 3933 
Q 2995 3712 2995 3430 
Q 2995 3245 2934 3078 
Q 2874 2912 2768 2777 
Q 2662 2643 2521 2544 
Q 2381 2445 2227 2394 
L 2246 2381 
Q 2438 2342 2598 2236 
Q 2758 2131 2873 1977 
Q 2989 1824 3053 1632 
Q 3117 1440 3117 1229 
Q 3117 915 3001 672 
Q 2886 429 2688 262 
Q 2490 96 2227 9 
Q 1965 -77 1670 -77 
Q 1171 -77 800 140 
Q 429 358 243 838 
L 730 986 
Q 845 659 1072 502 
Q 1299 346 1709 346 
Q 1901 346 2073 410 
Q 2246 474 2377 592 
Q 2509 710 2582 876 
Q 2656 1043 2656 1242 
Q 2656 1498 2560 1674 
Q 2464 1850 2304 1958 
Q 2144 2067 1936 2115 
Q 1728 2163 1504 2163 
L 1306 2163 
L 1306 2586 
z
" transform="scale(0.015625)"/>
       </defs>
       <use xlink:href="#Avenir-Book-31" transform="translate(0 0.842187)"/>
       <use xlink:href="#Avenir-Book-30" transform="translate(55.599991 0.842187)"/>
       <use xlink:href="#Avenir-Book-33" transform="translate(112.018927 33.6) scale(0.7)"/>
      </g>
     </g>
    </g>
    <g id="xtick_7">
     <g id="line2d_7">
      <defs>
       <path id="m83fe1c4037" d="M 0 0 
L 0 1.7 
" style="stroke: #878787; stroke-width: 0.715"/>
      </defs>
      <g>
       <use xlink:href="#m83fe1c4037" x="65.920789" y="179.265125" style="fill: #878787; stroke: #878787; stroke-width: 0.715"/>
      </g>
     </g>
    </g>
    <g id="xtick_8">
     <g id="line2d_8">
      <g>
       <use xlink:href="#m83fe1c4037" x="68.562144" y="179.265125" style="fill: #878787; stroke: #878787; stroke-width: 0.715"/>
      </g>
     </g>
    </g>
    <g id="xtick_9">
     <g id="line2d_9">
      <g>
       <use xlink:href="#m83fe1c4037" x="70.85019" y="179.265125" style="fill: #878787; stroke: #878787; stroke-width: 0.715"/>
      </g>
     </g>
    </g>
    <g id="xtick_10">
     <g id="line2d_10">
      <g>
       <use xlink:href="#m83fe1c4037" x="72.868389" y="179.265125" style="fill: #878787; stroke: #878787; stroke-width: 0.715"/>
      </g>
     </g>
    </g>
    <g id="xtick_11">
     <g id="line2d_11">
      <g>
       <use xlink:href="#m83fe1c4037" x="86.550732" y="179.265125" style="fill: #878787; stroke: #878787; stroke-width: 0.715"/>
      </g>
     </g>
    </g>
    <g id="xtick_12">
     <g id="line2d_12">
      <g>
       <use xlink:href="#m83fe1c4037" x="93.498332" y="179.265125" style="fill: #878787; stroke: #878787; stroke-width: 0.715"/>
      </g>
     </g>
    </g>
    <g id="xtick_13">
     <g id="line2d_13">
      <g>
       <use xlink:href="#m83fe1c4037" x="98.427733" y="179.265125" style="fill: #878787; stroke: #878787; stroke-width: 0.715"/>
      </g>
     </g>
    </g>
    <g id="xtick_14">
     <g id="line2d_14">
      <g>
       <use xlink:href="#m83fe1c4037" x="102.251274" y="179.265125" style="fill: #878787; stroke: #878787; stroke-width: 0.715"/>
      </g>
     </g>
    </g>
    <g id="xtick_15">
     <g id="line2d_15">
      <g>
       <use xlink:href="#m83fe1c4037" x="105.375334" y="179.265125" style="fill: #878787; stroke: #878787; stroke-width: 0.715"/>
      </g>
     </g>
    </g>
    <g id="xtick_16">
     <g id="line2d_16">
      <g>
       <use xlink:href="#m83fe1c4037" x="108.016689" y="179.265125" style="fill: #878787; stroke: #878787; stroke-width: 0.715"/>
      </g>
     </g>
    </g>
    <g id="xtick_17">
     <g id="line2d_17">
      <g>
       <use xlink:href="#m83fe1c4037" x="110.304735" y="179.265125" style="fill: #878787; stroke: #878787; stroke-width: 0.715"/>
      </g>
     </g>
    </g>
    <g id="xtick_18">
     <g id="line2d_18">
      <g>
       <use xlink:href="#m83fe1c4037" x="112.322935" y="179.265125" style="fill: #878787; stroke: #878787; stroke-width: 0.715"/>
      </g>
     </g>
    </g>
    <g id="xtick_19">
     <g id="line2d_19">
      <g>
       <use xlink:href="#m83fe1c4037" x="126.005277" y="179.265125" style="fill: #878787; stroke: #878787; stroke-width: 0.715"/>
      </g>
     </g>
    </g>
    <g id="xtick_20">
     <g id="line2d_20">
      <g>
       <use xlink:href="#m83fe1c4037" x="132.952878" y="179.265125" style="fill: #878787; stroke: #878787; stroke-width: 0.715"/>
      </g>
     </g>
    </g>
    <g id="xtick_21">
     <g id="line2d_21">
      <g>
       <use xlink:href="#m83fe1c4037" x="137.882279" y="179.265125" style="fill: #878787; stroke: #878787; stroke-width: 0.715"/>
      </g>
     </g>
    </g>
    <g id="xtick_22">
     <g id="line2d_22">
      <g>
       <use xlink:href="#m83fe1c4037" x="141.705819" y="179.265125" style="fill: #878787; stroke: #878787; stroke-width: 0.715"/>
      </g>
     </g>
    </g>
    <g id="xtick_23">
     <g id="line2d_23">
      <g>
       <use xlink:href="#m83fe1c4037" x="144.829879" y="179.265125" style="fill: #878787; stroke: #878787; stroke-width: 0.715"/>
      </g>
     </g>
    </g>
    <g id="xtick_24">
     <g id="line2d_24">
      <g>
       <use xlink:href="#m83fe1c4037" x="147.471235" y="179.265125" style="fill: #878787; stroke: #878787; stroke-width: 0.715"/>
      </g>
     </g>
    </g>
    <g id="xtick_25">
     <g id="line2d_25">
      <g>
       <use xlink:href="#m83fe1c4037" x="149.759281" y="179.265125" style="fill: #878787; stroke: #878787; stroke-width: 0.715"/>
      </g>
     </g>
    </g>
    <g id="xtick_26">
     <g id="line2d_26">
      <g>
       <use xlink:href="#m83fe1c4037" x="151.77748" y="179.265125" style="fill: #878787; stroke: #878787; stroke-width: 0.715"/>
      </g>
     </g>
    </g>
    <g id="xtick_27">
     <g id="line2d_27">
      <g>
       <use xlink:href="#m83fe1c4037" x="165.459823" y="179.265125" style="fill: #878787; stroke: #878787; stroke-width: 0.715"/>
      </g>
     </g>
    </g>
    <g id="xtick_28">
     <g id="line2d_28">
      <g>
       <use xlink:href="#m83fe1c4037" x="172.407423" y="179.265125" style="fill: #878787; stroke: #878787; stroke-width: 0.715"/>
      </g>
     </g>
    </g>
    <g id="xtick_29">
     <g id="line2d_29">
      <g>
       <use xlink:href="#m83fe1c4037" x="177.336824" y="179.265125" style="fill: #878787; stroke: #878787; stroke-width: 0.715"/>
      </g>
     </g>
    </g>
    <g id="xtick_30">
     <g id="line2d_30">
      <g>
       <use xlink:href="#m83fe1c4037" x="181.160365" y="179.265125" style="fill: #878787; stroke: #878787; stroke-width: 0.715"/>
      </g>
     </g>
    </g>
    <g id="xtick_31">
     <g id="line2d_31">
      <g>
       <use xlink:href="#m83fe1c4037" x="184.284425" y="179.265125" style="fill: #878787; stroke: #878787; stroke-width: 0.715"/>
      </g>
     </g>
    </g>
    <g id="xtick_32">
     <g id="line2d_32">
      <g>
       <use xlink:href="#m83fe1c4037" x="186.92578" y="179.265125" style="fill: #878787; stroke: #878787; stroke-width: 0.715"/>
      </g>
     </g>
    </g>
    <g id="xtick_33">
     <g id="line2d_33">
      <g>
       <use xlink:href="#m83fe1c4037" x="189.213826" y="179.265125" style="fill: #878787; stroke: #878787; stroke-width: 0.715"/>
      </g>
     </g>
    </g>
    <g id="xtick_34">
     <g id="line2d_34">
      <g>
       <use xlink:href="#m83fe1c4037" x="191.232025" y="179.265125" style="fill: #878787; stroke: #878787; stroke-width: 0.715"/>
      </g>
     </g>
    </g>
    <g id="xtick_35">
     <g id="line2d_35">
      <g>
       <use xlink:href="#m83fe1c4037" x="204.914368" y="179.265125" style="fill: #878787; stroke: #878787; stroke-width: 0.715"/>
      </g>
     </g>
    </g>
    <g id="xtick_36">
     <g id="line2d_36">
      <g>
       <use xlink:href="#m83fe1c4037" x="211.861969" y="179.265125" style="fill: #878787; stroke: #878787; stroke-width: 0.715"/>
      </g>
     </g>
    </g>
    <g id="xtick_37">
     <g id="line2d_37">
      <g>
       <use xlink:href="#m83fe1c4037" x="216.79137" y="179.265125" style="fill: #878787; stroke: #878787; stroke-width: 0.715"/>
      </g>
     </g>
    </g>
    <g id="xtick_38">
     <g id="line2d_38">
      <g>
       <use xlink:href="#m83fe1c4037" x="220.61491" y="179.265125" style="fill: #878787; stroke: #878787; stroke-width: 0.715"/>
      </g>
     </g>
    </g>
    <g id="xtick_39">
     <g id="line2d_39">
      <g>
       <use xlink:href="#m83fe1c4037" x="223.73897" y="179.265125" style="fill: #878787; stroke: #878787; stroke-width: 0.715"/>
      </g>
     </g>
    </g>
    <g id="xtick_40">
     <g id="line2d_40">
      <g>
       <use xlink:href="#m83fe1c4037" x="226.380326" y="179.265125" style="fill: #878787; stroke: #878787; stroke-width: 0.715"/>
      </g>
     </g>
    </g>
    <g id="xtick_41">
     <g id="line2d_41">
      <g>
       <use xlink:href="#m83fe1c4037" x="228.668371" y="179.265125" style="fill: #878787; stroke: #878787; stroke-width: 0.715"/>
      </g>
     </g>
    </g>
    <g id="xtick_42">
     <g id="line2d_42">
      <g>
       <use xlink:href="#m83fe1c4037" x="230.686571" y="179.265125" style="fill: #878787; stroke: #878787; stroke-width: 0.715"/>
      </g>
     </g>
    </g>
    <g id="xtick_43">
     <g id="line2d_43">
      <g>
       <use xlink:href="#m83fe1c4037" x="244.368914" y="179.265125" style="fill: #878787; stroke: #878787; stroke-width: 0.715"/>
      </g>
     </g>
    </g>
    <g id="xtick_44">
     <g id="line2d_44">
      <g>
       <use xlink:href="#m83fe1c4037" x="251.316514" y="179.265125" style="fill: #878787; stroke: #878787; stroke-width: 0.715"/>
      </g>
     </g>
    </g>
    <g id="xtick_45">
     <g id="line2d_45">
      <g>
       <use xlink:href="#m83fe1c4037" x="256.245915" y="179.265125" style="fill: #878787; stroke: #878787; stroke-width: 0.715"/>
      </g>
     </g>
    </g>
    <g id="xtick_46">
     <g id="line2d_46">
      <g>
       <use xlink:href="#m83fe1c4037" x="260.069456" y="179.265125" style="fill: #878787; stroke: #878787; stroke-width: 0.715"/>
      </g>
     </g>
    </g>
    <g id="xtick_47">
     <g id="line2d_47">
      <g>
       <use xlink:href="#m83fe1c4037" x="263.193516" y="179.265125" style="fill: #878787; stroke: #878787; stroke-width: 0.715"/>
      </g>
     </g>
    </g>
    <g id="xtick_48">
     <g id="line2d_48">
      <g>
       <use xlink:href="#m83fe1c4037" x="265.834871" y="179.265125" style="fill: #878787; stroke: #878787; stroke-width: 0.715"/>
      </g>
     </g>
    </g>
    <g id="xtick_49">
     <g id="line2d_49">
      <g>
       <use xlink:href="#m83fe1c4037" x="268.122917" y="179.265125" style="fill: #878787; stroke: #878787; stroke-width: 0.715"/>
      </g>
     </g>
    </g>
    <g id="xtick_50">
     <g id="line2d_50">
      <g>
       <use xlink:href="#m83fe1c4037" x="270.141116" y="179.265125" style="fill: #878787; stroke: #878787; stroke-width: 0.715"/>
      </g>
     </g>
    </g>
    <g id="text_7">
     <!-- $\sigma$ -->
     <g style="fill: #262626" transform="translate(167.800094 217.695313) scale(0.19 -0.19)">
      <defs>
       <path id="Cmmi10-be" d="M 1197 -72 
Q 913 -72 692 64 
Q 472 200 351 431 
Q 231 663 231 941 
Q 231 1238 365 1566 
Q 500 1894 733 2166 
Q 966 2438 1259 2598 
Q 1553 2759 1863 2759 
L 3475 2759 
Q 3541 2759 3587 2715 
Q 3634 2672 3634 2597 
Q 3634 2503 3567 2433 
Q 3500 2363 3406 2363 
L 2625 2363 
Q 2809 2088 2809 1697 
Q 2809 1375 2684 1062 
Q 2559 750 2337 492 
Q 2116 234 1820 81 
Q 1525 -72 1197 -72 
z
M 1203 97 
Q 1553 97 1823 370 
Q 2094 644 2237 1039 
Q 2381 1434 2381 1772 
Q 2381 2047 2229 2205 
Q 2078 2363 1806 2363 
Q 1434 2363 1173 2113 
Q 913 1863 783 1484 
Q 653 1106 653 756 
Q 653 481 798 289 
Q 944 97 1203 97 
z
" transform="scale(0.015625)"/>
      </defs>
      <use xlink:href="#Cmmi10-be" transform="translate(0 0.890625)"/>
     </g>
    </g>
   </g>
   <g id="matplotlib.axis_2">
    <g id="ytick_1">
     <g id="line2d_51">
      <defs>
       <path id="m3200314792" d="M 0 0 
L -3 0 
" style="stroke: #878787; stroke-width: 1.1"/>
      </defs>
      <g>
       <use xlink:href="#m3200314792" x="64.810094" y="171.705125" style="fill: #878787; stroke: #878787; stroke-width: 1.1"/>
      </g>
     </g>
     <g id="text_8">
      <!-- 0.00 -->
      <g style="fill: #4a4a4a" transform="translate(31.034219 177.45025) scale(0.152 -0.152)">
       <defs>
        <path id="Avenir-Book-2e" d="M 1235 307 
Q 1235 173 1139 67 
Q 1043 -38 890 -38 
Q 736 -38 640 67 
Q 544 173 544 307 
Q 544 442 640 547 
Q 736 653 890 653 
Q 1043 653 1139 547 
Q 1235 442 1235 307 
z
" transform="scale(0.015625)"/>
       </defs>
       <use xlink:href="#Avenir-Book-30"/>
       <use xlink:href="#Avenir-Book-2e" x="55.599991"/>
       <use xlink:href="#Avenir-Book-30" x="83.399979"/>
       <use xlink:href="#Avenir-Book-30" x="138.999969"/>
      </g>
     </g>
    </g>
    <g id="ytick_2">
     <g id="line2d_52">
      <g>
       <use xlink:href="#m3200314792" x="64.810094" y="93.958067" style="fill: #878787; stroke: #878787; stroke-width: 1.1"/>
      </g>
     </g>
     <g id="text_9">
      <!-- 0.37 -->
      <g style="fill: #4a4a4a" transform="translate(31.034219 99.703192) scale(0.152 -0.152)">
       <defs>
        <path id="Avenir-Book-37" d="M 3034 4109 
L 1210 0 
L 691 0 
L 2554 4109 
L 346 4109 
L 346 4531 
L 3034 4531 
L 3034 4109 
z
" transform="scale(0.015625)"/>
       </defs>
       <use xlink:href="#Avenir-Book-30"/>
       <use xlink:href="#Avenir-Book-2e" x="55.599991"/>
       <use xlink:href="#Avenir-Book-33" x="83.399979"/>
       <use xlink:href="#Avenir-Book-37" x="138.999969"/>
      </g>
     </g>
    </g>
    <g id="ytick_3">
     <g id="line2d_53">
      <g>
       <use xlink:href="#m3200314792" x="64.810094" y="16.211008" style="fill: #878787; stroke: #878787; stroke-width: 1.1"/>
      </g>
     </g>
     <g id="text_10">
      <!-- 0.74 -->
      <g style="fill: #4a4a4a" transform="translate(31.034219 21.956133) scale(0.152 -0.152)">
       <defs>
        <path id="Avenir-Book-34" d="M 2202 4070 
L 2189 4070 
L 627 1498 
L 2202 1498 
L 2202 4070 
z
M 2662 1498 
L 3315 1498 
L 3315 1075 
L 2662 1075 
L 2662 0 
L 2202 0 
L 2202 1075 
L 243 1075 
L 243 1600 
L 2074 4531 
L 2662 4531 
L 2662 1498 
z
" transform="scale(0.015625)"/>
       </defs>
       <use xlink:href="#Avenir-Book-30"/>
       <use xlink:href="#Avenir-Book-2e" x="55.599991"/>
       <use xlink:href="#Avenir-Book-37" x="83.399979"/>
       <use xlink:href="#Avenir-Book-34" x="138.999969"/>
      </g>
     </g>
    </g>
    <g id="text_11">
     <!-- $I_{y \eta}$ -->
     <g style="fill: #262626" transform="translate(20.764219 107.505125) rotate(-90) scale(0.19 -0.19)">
      <defs>
       <path id="Cmmi10-49" d="M 269 0 
Q 206 0 206 84 
Q 231 225 288 225 
Q 666 225 800 250 
Q 947 284 984 441 
L 1863 3956 
Q 1875 4019 1875 4038 
Q 1875 4078 1854 4095 
Q 1834 4113 1791 4122 
Q 1663 4147 1306 4147 
Q 1241 4147 1241 4231 
Q 1263 4313 1275 4342 
Q 1288 4372 1350 4372 
L 3138 4372 
Q 3200 4372 3200 4288 
Q 3197 4272 3187 4234 
Q 3178 4197 3162 4172 
Q 3147 4147 3116 4147 
Q 2741 4147 2597 4122 
Q 2456 4088 2419 3928 
L 1544 416 
Q 1528 338 1528 331 
Q 1528 316 1533 302 
Q 1538 288 1552 277 
Q 1566 266 1580 261 
Q 1594 256 1613 250 
Q 1734 225 2100 225 
Q 2163 225 2163 141 
Q 2141 50 2128 25 
Q 2116 0 2053 0 
L 269 0 
z
" transform="scale(0.015625)"/>
       <path id="Cmmi10-79" d="M 538 -916 
Q 672 -1147 1006 -1147 
Q 1309 -1147 1531 -934 
Q 1753 -722 1889 -420 
Q 2025 -119 2100 197 
Q 1816 -72 1484 -72 
Q 1231 -72 1053 15 
Q 875 103 776 276 
Q 678 450 678 697 
Q 678 906 734 1126 
Q 791 1347 892 1617 
Q 994 1888 1069 2088 
Q 1153 2322 1153 2472 
Q 1153 2663 1013 2663 
Q 759 2663 595 2402 
Q 431 2141 353 1819 
Q 341 1778 300 1778 
L 225 1778 
Q 172 1778 172 1838 
L 172 1856 
Q 275 2238 487 2533 
Q 700 2828 1025 2828 
Q 1253 2828 1411 2678 
Q 1569 2528 1569 2297 
Q 1569 2178 1516 2047 
Q 1488 1969 1388 1706 
Q 1288 1444 1234 1272 
Q 1181 1100 1147 934 
Q 1113 769 1113 603 
Q 1113 391 1203 244 
Q 1294 97 1491 97 
Q 1888 97 2203 581 
L 2688 2553 
Q 2709 2638 2787 2698 
Q 2866 2759 2956 2759 
Q 3034 2759 3092 2709 
Q 3150 2659 3150 2578 
Q 3150 2541 3144 2528 
L 2509 -19 
Q 2425 -347 2200 -647 
Q 1975 -947 1658 -1130 
Q 1341 -1313 997 -1313 
Q 831 -1313 668 -1248 
Q 506 -1184 406 -1056 
Q 306 -928 306 -756 
Q 306 -581 409 -453 
Q 513 -325 684 -325 
Q 788 -325 858 -389 
Q 928 -453 928 -556 
Q 928 -703 818 -812 
Q 709 -922 563 -922 
Q 556 -919 550 -917 
Q 544 -916 538 -916 
z
" transform="scale(0.015625)"/>
       <path id="Cmmi10-b4" d="M 684 -72 
Q 606 -72 550 -22 
Q 494 28 494 109 
Q 494 147 500 166 
L 978 2075 
Q 1025 2253 1025 2388 
Q 1025 2663 838 2663 
Q 638 2663 541 2423 
Q 444 2184 353 1819 
Q 353 1800 334 1789 
Q 316 1778 300 1778 
L 225 1778 
Q 203 1778 187 1801 
Q 172 1825 172 1844 
Q 241 2122 305 2315 
Q 369 2509 505 2668 
Q 641 2828 844 2828 
Q 1081 2828 1267 2678 
Q 1453 2528 1453 2291 
Q 1641 2541 1894 2684 
Q 2147 2828 2444 2828 
Q 2778 2828 2979 2648 
Q 3181 2469 3181 2138 
Q 3181 1947 3138 1784 
L 2394 -1178 
Q 2375 -1269 2300 -1325 
Q 2225 -1381 2131 -1381 
Q 2053 -1381 1997 -1332 
Q 1941 -1284 1941 -1203 
Q 1941 -1166 1947 -1153 
L 2681 1797 
Q 2747 2059 2747 2234 
Q 2747 2413 2672 2538 
Q 2597 2663 2431 2663 
Q 1803 2663 1388 1888 
L 953 141 
Q 931 53 854 -9 
Q 778 -72 684 -72 
z
" transform="scale(0.015625)"/>
      </defs>
      <use xlink:href="#Cmmi10-49" transform="translate(0 0.6875)"/>
      <use xlink:href="#Cmmi10-79" transform="translate(43.896484 -16.31875) scale(0.7)"/>
      <use xlink:href="#Cmmi10-b4" transform="translate(78.212891 -16.31875) scale(0.7)"/>
     </g>
    </g>
   </g>
   <g id="line2d_54">
    <path d="M 102.291912 171.556244 
L 110.971912 171.293611 
L 116.495548 170.917254 
L 120.441003 170.449645 
L 123.597366 169.879599 
L 126.359185 169.168801 
L 128.726457 168.339974 
L 130.699185 167.44399 
L 132.671912 166.309089 
L 134.644639 164.874943 
L 136.222821 163.464411 
L 137.801003 161.775202 
L 139.379185 159.762466 
L 140.957366 157.379771 
L 142.535548 154.58175 
L 144.11373 151.32766 
L 145.691912 147.585716 
L 147.270094 143.337801 
L 149.242821 137.318544 
L 151.215548 130.559084 
L 153.582821 121.624657 
L 157.13373 107.164847 
L 161.868276 87.883241 
L 164.235548 79.054526 
L 166.602821 71.121128 
L 168.575548 65.299734 
L 170.548276 60.23345 
L 172.126457 56.722696 
L 173.704639 53.679697 
L 175.282821 51.084408 
L 176.861003 48.914323 
L 178.439185 47.148107 
L 180.017366 45.769186 
L 181.201003 44.983888 
L 182.384639 44.412835 
L 183.568276 44.062587 
L 184.751912 43.946716 
L 185.935548 44.087841 
L 187.119185 44.520069 
L 188.302821 45.2916 
L 189.486457 46.466795 
L 190.670094 48.126258 
L 191.85373 50.362856 
L 193.037366 53.272266 
L 194.221003 56.939552 
L 195.404639 61.427219 
L 196.588276 66.770656 
L 197.771912 72.982049 
L 199.350094 82.607842 
L 200.928276 93.744514 
L 202.506457 106.356737 
L 204.479185 124.133815 
L 206.451912 144.054011 
L 208.819185 170.611898 
L 209.21373 171.705125 
L 271.946457 171.705125 
L 271.946457 171.705125 
" clip-path="url(#p5b2318b806)" style="fill: none; stroke-dasharray: 3.7,1.6; stroke-dashoffset: 0; stroke: #dc6400; stroke-linecap: round"/>
   </g>
   <g id="line2d_55">
    <path d="M 102.291912 171.705125 
L 141.351912 171.59932 
L 142.930094 168.837648 
L 144.508276 165.542639 
L 146.086457 161.694479 
L 147.664639 157.291441 
L 149.637366 151.039327 
L 151.610094 144.041332 
L 154.371912 133.272997 
L 163.841003 95.128601 
L 166.208276 87.004595 
L 168.181003 80.973893 
L 170.15373 75.648749 
L 172.126457 71.021821 
L 174.099185 67.058207 
L 175.677366 64.329447 
L 177.255548 61.958831 
L 178.83373 59.91192 
L 180.806457 57.755675 
L 182.779185 55.985671 
L 184.751912 54.541492 
L 186.724639 53.369077 
L 189.091912 52.254941 
L 191.459185 51.395813 
L 194.221003 50.641904 
L 197.377366 50.024127 
L 201.322821 49.507462 
L 206.057366 49.12963 
L 212.370094 48.861197 
L 222.23373 48.692083 
L 242.355548 48.6212 
L 271.946457 48.613948 
L 271.946457 48.613948 
" clip-path="url(#p5b2318b806)" style="fill: none; stroke-dasharray: 3.7,1.6; stroke-dashoffset: 0; stroke: #0f4c5c; stroke-linecap: round"/>
   </g>
   <g id="line2d_56">
    <path d="M 74.67373 171.704026 
L 113.339185 171.590197 
L 121.230094 171.363822 
L 125.570094 171.051029 
L 128.726457 170.630565 
L 131.09373 170.129697 
L 133.066457 169.528575 
L 135.039185 168.693516 
L 136.617366 167.802926 
L 138.195548 166.660493 
L 139.77373 165.208747 
L 141.351912 163.38475 
L 142.930094 161.123054 
L 144.508276 158.360037 
L 146.086457 155.039468 
L 147.664639 151.118831 
L 149.242821 146.575661 
L 150.821003 141.412952 
L 152.79373 134.13991 
L 155.161003 124.38764 
L 158.317366 110.225535 
L 164.235548 83.447703 
L 166.602821 73.769026 
L 168.970094 65.076058 
L 170.942821 58.666076 
L 172.915548 53.0268 
L 174.888276 48.130585 
L 176.861003 43.924486 
L 178.83373 40.340917 
L 180.806457 37.306287 
L 182.779185 34.747265 
L 184.751912 32.594844 
L 186.724639 30.786599 
L 188.697366 29.267637 
L 191.064639 27.760656 
L 193.431912 26.534242 
L 196.19373 25.384891 
L 198.955548 24.47334 
L 202.111912 23.655123 
L 206.057366 22.882522 
L 210.397366 22.263307 
L 215.921003 21.713362 
L 222.628276 21.277383 
L 231.702821 20.926872 
L 244.328276 20.679332 
L 264.844639 20.527062 
L 271.946457 20.505125 
L 271.946457 20.505125 
" clip-path="url(#p5b2318b806)" style="fill: none; stroke: #bc4749; stroke-width: 2; stroke-linecap: round"/>
   </g>
   <g id="line2d_57">
    <path d="M 74.67373 171.705125 
L 146.875548 171.705125 
L 147.664639 169.726298 
L 149.242821 164.909216 
L 151.215548 158.002505 
L 153.188276 150.214371 
L 155.555548 139.940052 
L 159.106457 123.409954 
L 164.235548 99.630245 
L 166.997366 87.915985 
L 169.364639 78.811249 
L 171.731912 70.665284 
L 173.704639 64.620739 
L 175.677366 59.231262 
L 177.650094 54.458679 
L 179.622821 50.254491 
L 181.595548 46.565308 
L 183.568276 43.336821 
L 185.541003 40.516472 
L 187.51373 38.055105 
L 189.486457 35.907841 
L 191.85373 33.689366 
L 194.221003 31.804565 
L 196.588276 30.201437 
L 199.350094 28.628795 
L 202.111912 27.321833 
L 205.268276 26.093186 
L 208.819185 24.982039 
L 212.764639 24.011196 
L 217.104639 23.189078 
L 222.23373 22.46485 
L 228.151912 21.868779 
L 235.25373 21.385479 
L 244.328276 21.003131 
L 256.559185 20.726339 
L 271.946457 20.569864 
L 271.946457 20.569864 
" clip-path="url(#p5b2318b806)" style="fill: none; stroke: #000000; stroke-width: 2; stroke-linecap: round"/>
   </g>
   <g id="patch_3">
    <path d="M 64.810094 179.265125 
L 64.810094 12.945125 
" style="fill: none; stroke: #878787; stroke-width: 0.7; stroke-linejoin: miter; stroke-linecap: square"/>
   </g>
   <g id="patch_4">
    <path d="M 281.810094 179.265125 
L 281.810094 12.945125 
" style="fill: none; stroke: #878787; stroke-width: 0.7; stroke-linejoin: miter; stroke-linecap: square"/>
   </g>
   <g id="patch_5">
    <path d="M 64.810094 179.265125 
L 281.810094 179.265125 
" style="fill: none; stroke: #878787; stroke-width: 0.7; stroke-linejoin: miter; stroke-linecap: square"/>
   </g>
   <g id="patch_6">
    <path d="M 64.810094 12.945125 
L 281.810094 12.945125 
" style="fill: none; stroke: #878787; stroke-width: 0.7; stroke-linejoin: miter; stroke-linecap: square"/>
   </g>
   <g id="legend_1">
    <g id="patch_7">
     <path d="M 76.010094 105.707625 
L 149.930094 105.707625 
Q 153.130094 105.707625 153.130094 102.507625 
L 153.130094 24.145125 
Q 153.130094 20.945125 149.930094 20.945125 
L 76.010094 20.945125 
Q 72.810094 20.945125 72.810094 24.145125 
L 72.810094 102.507625 
Q 72.810094 105.707625 76.010094 105.707625 
z
" style="fill: #ffffff; opacity: 0.7; stroke: #cccccc; stroke-linejoin: miter"/>
    </g>
    <g id="line2d_58">
     <path d="M 79.210094 34.080125 
L 83.210094 34.080125 
L 87.210094 34.080125 
" style="fill: none; stroke-dasharray: 3.7,1.6; stroke-dashoffset: 0; stroke: #dc6400; stroke-linecap: round"/>
    </g>
    <g id="text_12">
     <!-- $a^*_{\rm eff}$ -->
     <g transform="translate(90.410094 39.440125) scale(0.16 -0.16)">
      <defs>
       <path id="Cmmi10-61" d="M 1113 -72 
Q 709 -72 476 233 
Q 244 538 244 953 
Q 244 1363 456 1803 
Q 669 2244 1030 2536 
Q 1391 2828 1806 2828 
Q 1997 2828 2147 2725 
Q 2297 2622 2381 2444 
Q 2453 2700 2663 2700 
Q 2744 2700 2798 2651 
Q 2853 2603 2853 2522 
Q 2853 2503 2851 2493 
Q 2850 2484 2847 2472 
L 2400 684 
Q 2356 494 2356 372 
Q 2356 97 2541 97 
Q 2741 97 2845 351 
Q 2950 606 3022 941 
Q 3034 978 3072 978 
L 3150 978 
Q 3175 978 3190 956 
Q 3206 934 3206 916 
Q 3094 469 2961 198 
Q 2828 -72 2528 -72 
Q 2313 -72 2147 54 
Q 1981 181 1941 391 
Q 1528 -72 1113 -72 
z
M 1119 97 
Q 1350 97 1567 270 
Q 1784 444 1941 678 
Q 1947 684 1947 697 
L 2291 2088 
L 2297 2106 
Q 2259 2334 2132 2498 
Q 2006 2663 1791 2663 
Q 1575 2663 1389 2486 
Q 1203 2309 1075 2069 
Q 950 1813 836 1366 
Q 722 919 722 672 
Q 722 450 817 273 
Q 913 97 1119 97 
z
" transform="scale(0.015625)"/>
       <path id="Cmsy10-a4" d="M 603 813 
Q 531 813 473 873 
Q 416 934 416 1006 
Q 416 1116 506 1159 
L 1428 1600 
L 506 2034 
Q 416 2072 416 2188 
Q 416 2259 473 2320 
Q 531 2381 603 2381 
Q 650 2381 691 2350 
L 1509 1753 
L 1416 2797 
Q 1416 2875 1469 2925 
Q 1522 2975 1600 2975 
Q 1675 2975 1726 2928 
Q 1778 2881 1778 2809 
L 1778 2797 
L 1684 1753 
L 2503 2350 
Q 2544 2381 2591 2381 
Q 2669 2381 2723 2320 
Q 2778 2259 2778 2188 
Q 2778 2072 2688 2034 
L 1766 1600 
L 2688 1159 
Q 2778 1116 2778 1006 
Q 2778 934 2723 873 
Q 2669 813 2591 813 
Q 2544 813 2503 844 
L 1684 1441 
L 1778 403 
L 1778 384 
Q 1778 313 1723 266 
Q 1669 219 1600 219 
Q 1525 219 1470 270 
Q 1416 322 1416 397 
L 1509 1441 
L 691 844 
Q 650 813 603 813 
z
" transform="scale(0.015625)"/>
       <path id="Cmr10-65" d="M 1594 -72 
Q 1203 -72 876 133 
Q 550 338 364 680 
Q 178 1022 178 1403 
Q 178 1778 348 2115 
Q 519 2453 823 2661 
Q 1128 2869 1503 2869 
Q 1797 2869 2014 2770 
Q 2231 2672 2372 2497 
Q 2513 2322 2584 2084 
Q 2656 1847 2656 1563 
Q 2656 1478 2591 1478 
L 738 1478 
L 738 1409 
Q 738 878 952 497 
Q 1166 116 1650 116 
Q 1847 116 2014 203 
Q 2181 291 2304 447 
Q 2428 603 2472 781 
Q 2478 803 2495 820 
Q 2513 838 2534 838 
L 2591 838 
Q 2656 838 2656 756 
Q 2566 394 2266 161 
Q 1966 -72 1594 -72 
z
M 744 1638 
L 2203 1638 
Q 2203 1878 2136 2125 
Q 2069 2372 1912 2536 
Q 1756 2700 1503 2700 
Q 1141 2700 942 2361 
Q 744 2022 744 1638 
z
" transform="scale(0.015625)"/>
       <path id="Cmr10-66" d="M 206 0 
L 206 225 
Q 422 225 562 259 
Q 703 294 703 428 
L 703 2534 
L 213 2534 
L 213 2759 
L 703 2759 
L 703 3525 
Q 703 3731 789 3911 
Q 875 4091 1020 4225 
Q 1166 4359 1355 4436 
Q 1544 4513 1747 4513 
Q 1963 4513 2136 4384 
Q 2309 4256 2309 4044 
Q 2309 3922 2226 3839 
Q 2144 3756 2022 3756 
Q 1900 3756 1814 3839 
Q 1728 3922 1728 4044 
Q 1728 4244 1900 4313 
Q 1797 4347 1716 4347 
Q 1528 4347 1395 4214 
Q 1263 4081 1197 3890 
Q 1131 3700 1131 3513 
L 1131 2759 
L 1869 2759 
L 1869 2534 
L 1153 2534 
L 1153 428 
Q 1153 297 1340 261 
Q 1528 225 1772 225 
L 1772 0 
L 206 0 
z
" transform="scale(0.015625)"/>
      </defs>
      <use xlink:href="#Cmmi10-61" transform="translate(0 0.196875)"/>
      <use xlink:href="#Cmsy10-a4" transform="translate(71.3775 38.460938) scale(0.7)"/>
      <use xlink:href="#Cmr10-65" transform="translate(52.783203 -25.3125) scale(0.7)"/>
      <use xlink:href="#Cmr10-66" transform="translate(83.852539 -25.3125) scale(0.7)"/>
      <use xlink:href="#Cmr10-66" transform="translate(105.214844 -25.3125) scale(0.7)"/>
     </g>
    </g>
    <g id="line2d_59">
     <path d="M 79.210094 51.902625 
L 83.210094 51.902625 
L 87.210094 51.902625 
" style="fill: none; stroke-dasharray: 3.7,1.6; stroke-dashoffset: 0; stroke: #0f4c5c; stroke-linecap: round"/>
    </g>
    <g id="text_13">
     <!-- $a^*$ -->
     <g transform="translate(90.410094 57.262625) scale(0.16 -0.16)">
      <use xlink:href="#Cmmi10-61" transform="translate(0 0.196875)"/>
      <use xlink:href="#Cmsy10-a4" transform="translate(71.3775 38.460938) scale(0.7)"/>
     </g>
    </g>
    <g id="line2d_60">
     <path d="M 79.210094 69.725125 
L 83.210094 69.725125 
L 87.210094 69.725125 
" style="fill: none; stroke: #bc4749; stroke-width: 2; stroke-linecap: round"/>
    </g>
    <g id="text_14">
     <!-- $a^*_{\rm constr, eff}$ -->
     <g transform="translate(90.410094 75.085125) scale(0.16 -0.16)">
      <defs>
       <path id="Cmr10-63" d="M 1594 -72 
Q 1206 -72 890 129 
Q 575 331 394 667 
Q 213 1003 213 1381 
Q 213 1759 392 2106 
Q 572 2453 889 2661 
Q 1206 2869 1594 2869 
Q 1969 2869 2276 2722 
Q 2584 2575 2584 2241 
Q 2584 2116 2495 2023 
Q 2406 1931 2278 1931 
Q 2150 1931 2061 2023 
Q 1972 2116 1972 2241 
Q 1972 2353 2044 2436 
Q 2116 2519 2222 2541 
Q 2000 2681 1600 2681 
Q 1294 2681 1106 2478 
Q 919 2275 844 1975 
Q 769 1675 769 1381 
Q 769 1072 861 783 
Q 953 494 1158 305 
Q 1363 116 1672 116 
Q 1975 116 2187 302 
Q 2400 488 2478 788 
Q 2478 825 2528 825 
L 2606 825 
Q 2625 825 2640 808 
Q 2656 791 2656 769 
L 2656 750 
Q 2559 372 2271 150 
Q 1984 -72 1594 -72 
z
" transform="scale(0.015625)"/>
       <path id="Cmr10-6f" d="M 1600 -72 
Q 1216 -72 887 123 
Q 559 319 368 647 
Q 178 975 178 1363 
Q 178 1656 283 1928 
Q 388 2200 583 2414 
Q 778 2628 1037 2748 
Q 1297 2869 1600 2869 
Q 1994 2869 2317 2661 
Q 2641 2453 2828 2104 
Q 3016 1756 3016 1363 
Q 3016 978 2825 648 
Q 2634 319 2307 123 
Q 1981 -72 1600 -72 
z
M 1600 116 
Q 2113 116 2284 487 
Q 2456 859 2456 1434 
Q 2456 1756 2422 1967 
Q 2388 2178 2272 2350 
Q 2200 2456 2089 2536 
Q 1978 2616 1854 2658 
Q 1731 2700 1600 2700 
Q 1400 2700 1220 2609 
Q 1041 2519 922 2350 
Q 803 2169 770 1951 
Q 738 1734 738 1434 
Q 738 1075 800 789 
Q 863 503 1052 309 
Q 1241 116 1600 116 
z
" transform="scale(0.015625)"/>
       <path id="Cmr10-6e" d="M 191 0 
L 191 225 
Q 409 225 550 259 
Q 691 294 691 428 
L 691 2175 
Q 691 2347 639 2423 
Q 588 2500 491 2517 
Q 394 2534 191 2534 
L 191 2759 
L 1119 2828 
L 1119 2203 
Q 1247 2478 1498 2653 
Q 1750 2828 2047 2828 
Q 2491 2828 2714 2615 
Q 2938 2403 2938 1966 
L 2938 428 
Q 2938 294 3078 259 
Q 3219 225 3438 225 
L 3438 0 
L 1972 0 
L 1972 225 
Q 2191 225 2331 259 
Q 2472 294 2472 428 
L 2472 1947 
Q 2472 2259 2381 2461 
Q 2291 2663 2009 2663 
Q 1638 2663 1398 2366 
Q 1159 2069 1159 1691 
L 1159 428 
Q 1159 294 1300 259 
Q 1441 225 1656 225 
L 1656 0 
L 191 0 
z
" transform="scale(0.015625)"/>
       <path id="Cmr10-73" d="M 213 -19 
L 213 1025 
Q 213 1075 269 1075 
L 347 1075 
Q 384 1075 397 1025 
Q 575 97 1259 97 
Q 1563 97 1767 234 
Q 1972 372 1972 659 
Q 1972 866 1812 1011 
Q 1653 1156 1434 1209 
L 1006 1294 
Q 791 1341 614 1437 
Q 438 1534 325 1695 
Q 213 1856 213 2069 
Q 213 2350 361 2529 
Q 509 2709 746 2789 
Q 984 2869 1259 2869 
Q 1588 2869 1831 2694 
L 2016 2853 
Q 2016 2869 2047 2869 
L 2094 2869 
Q 2113 2869 2128 2851 
Q 2144 2834 2144 2816 
L 2144 1978 
Q 2144 1919 2094 1919 
L 2016 1919 
Q 1959 1919 1959 1978 
Q 1959 2313 1773 2516 
Q 1588 2719 1253 2719 
Q 966 2719 755 2612 
Q 544 2506 544 2247 
Q 544 2069 695 1955 
Q 847 1841 1050 1791 
L 1484 1709 
Q 1703 1659 1892 1540 
Q 2081 1422 2192 1240 
Q 2303 1059 2303 831 
Q 2303 600 2223 429 
Q 2144 259 2001 146 
Q 1859 34 1665 -19 
Q 1472 -72 1259 -72 
Q 859 -72 575 197 
L 341 -56 
Q 341 -72 306 -72 
L 269 -72 
Q 213 -72 213 -19 
z
" transform="scale(0.015625)"/>
       <path id="Cmr10-74" d="M 653 769 
L 653 2534 
L 122 2534 
L 122 2700 
Q 541 2700 737 3090 
Q 934 3481 934 3938 
L 1119 3938 
L 1119 2759 
L 2022 2759 
L 2022 2534 
L 1119 2534 
L 1119 781 
Q 1119 516 1208 316 
Q 1297 116 1528 116 
Q 1747 116 1844 327 
Q 1941 538 1941 781 
L 1941 1159 
L 2125 1159 
L 2125 769 
Q 2125 569 2051 373 
Q 1978 178 1834 53 
Q 1691 -72 1484 -72 
Q 1100 -72 876 158 
Q 653 388 653 769 
z
" transform="scale(0.015625)"/>
       <path id="Cmr10-72" d="M 166 0 
L 166 225 
Q 384 225 525 259 
Q 666 294 666 428 
L 666 2175 
Q 666 2347 614 2423 
Q 563 2500 466 2517 
Q 369 2534 166 2534 
L 166 2759 
L 1081 2828 
L 1081 2203 
Q 1184 2481 1375 2654 
Q 1566 2828 1838 2828 
Q 2028 2828 2178 2715 
Q 2328 2603 2328 2419 
Q 2328 2303 2245 2217 
Q 2163 2131 2041 2131 
Q 1922 2131 1837 2215 
Q 1753 2300 1753 2419 
Q 1753 2591 1875 2663 
L 1838 2663 
Q 1578 2663 1414 2475 
Q 1250 2288 1181 2009 
Q 1113 1731 1113 1478 
L 1113 428 
Q 1113 225 1734 225 
L 1734 0 
L 166 0 
z
" transform="scale(0.015625)"/>
       <path id="Cmmi10-3b" d="M 634 -1153 
Q 634 -1125 659 -1100 
Q 891 -878 1019 -587 
Q 1147 -297 1147 25 
L 1147 103 
Q 1044 0 891 0 
Q 744 0 641 103 
Q 538 206 538 353 
Q 538 503 641 603 
Q 744 703 891 703 
Q 1119 703 1216 492 
Q 1313 281 1313 25 
Q 1313 -331 1170 -651 
Q 1028 -972 769 -1228 
Q 744 -1241 728 -1241 
Q 697 -1241 665 -1212 
Q 634 -1184 634 -1153 
z
" transform="scale(0.015625)"/>
      </defs>
      <use xlink:href="#Cmmi10-61" transform="translate(0 0.196875)"/>
      <use xlink:href="#Cmsy10-a4" transform="translate(71.3775 38.460938) scale(0.7)"/>
      <use xlink:href="#Cmr10-63" transform="translate(52.783203 -25.3125) scale(0.7)"/>
      <use xlink:href="#Cmr10-6f" transform="translate(83.852539 -25.3125) scale(0.7)"/>
      <use xlink:href="#Cmr10-6e" transform="translate(118.852539 -25.3125) scale(0.7)"/>
      <use xlink:href="#Cmr10-73" transform="translate(157.714844 -25.3125) scale(0.7)"/>
      <use xlink:href="#Cmr10-74" transform="translate(185.297852 -25.3125) scale(0.7)"/>
      <use xlink:href="#Cmr10-72" transform="translate(212.470703 -25.3125) scale(0.7)"/>
      <use xlink:href="#Cmmi10-3b" transform="translate(239.848633 -25.3125) scale(0.7)"/>
      <use xlink:href="#Cmr10-65" transform="translate(271.519531 -25.3125) scale(0.7)"/>
      <use xlink:href="#Cmr10-66" transform="translate(302.588867 -25.3125) scale(0.7)"/>
      <use xlink:href="#Cmr10-66" transform="translate(323.951172 -25.3125) scale(0.7)"/>
     </g>
    </g>
    <g id="line2d_61">
     <path d="M 79.210094 89.340125 
L 83.210094 89.340125 
L 87.210094 89.340125 
" style="fill: none; stroke: #000000; stroke-width: 2; stroke-linecap: round"/>
    </g>
    <g id="text_15">
     <!-- $a^*_{\rm constr}$ -->
     <g transform="translate(90.410094 94.700125) scale(0.16 -0.16)">
      <use xlink:href="#Cmmi10-61" transform="translate(0 0.196875)"/>
      <use xlink:href="#Cmsy10-a4" transform="translate(71.3775 38.460938) scale(0.7)"/>
      <use xlink:href="#Cmr10-63" transform="translate(52.783203 -25.3125) scale(0.7)"/>
      <use xlink:href="#Cmr10-6f" transform="translate(83.852539 -25.3125) scale(0.7)"/>
      <use xlink:href="#Cmr10-6e" transform="translate(118.852539 -25.3125) scale(0.7)"/>
      <use xlink:href="#Cmr10-73" transform="translate(157.714844 -25.3125) scale(0.7)"/>
      <use xlink:href="#Cmr10-74" transform="translate(185.297852 -25.3125) scale(0.7)"/>
      <use xlink:href="#Cmr10-72" transform="translate(212.470703 -25.3125) scale(0.7)"/>
     </g>
    </g>
   </g>
  </g>
  <g id="axes_2">
   <g id="patch_8">
    <path d="M 346.910094 179.265125 
L 563.910094 179.265125 
L 563.910094 12.945125 
L 346.910094 12.945125 
L 346.910094 179.265125 
z
" style="fill: none"/>
   </g>
   <g id="matplotlib.axis_3">
    <g id="xtick_51">
     <g id="line2d_62">
      <g>
       <use xlink:href="#m29f43368ea" x="356.77373" y="179.265125" style="fill: #878787; stroke: #878787; stroke-width: 1.1"/>
      </g>
     </g>
     <g id="text_16">
      <!-- $\mathdefault{10^{-2}}$ -->
      <g style="fill: #4a4a4a" transform="translate(341.57373 194.955375) scale(0.152 -0.152)">
       <use xlink:href="#Avenir-Book-31" transform="translate(0 0.842187)"/>
       <use xlink:href="#Avenir-Book-30" transform="translate(55.599991 0.842187)"/>
       <use xlink:href="#Avenir-Book-2212" transform="translate(112.018927 33.6) scale(0.7)"/>
       <use xlink:href="#Avenir-Book-32" transform="translate(158.638921 33.6) scale(0.7)"/>
      </g>
     </g>
    </g>
    <g id="xtick_52">
     <g id="line2d_63">
      <g>
       <use xlink:href="#m29f43368ea" x="396.228276" y="179.265125" style="fill: #878787; stroke: #878787; stroke-width: 1.1"/>
      </g>
     </g>
     <g id="text_17">
      <!-- $\mathdefault{10^{-1}}$ -->
      <g style="fill: #4a4a4a" transform="translate(381.028276 194.955375) scale(0.152 -0.152)">
       <use xlink:href="#Avenir-Book-31" transform="translate(0 0.684375)"/>
       <use xlink:href="#Avenir-Book-30" transform="translate(55.599991 0.684375)"/>
       <use xlink:href="#Avenir-Book-2212" transform="translate(112.018927 33.442188) scale(0.7)"/>
       <use xlink:href="#Avenir-Book-31" transform="translate(158.638921 33.442188) scale(0.7)"/>
      </g>
     </g>
    </g>
    <g id="xtick_53">
     <g id="line2d_64">
      <g>
       <use xlink:href="#m29f43368ea" x="435.682821" y="179.265125" style="fill: #878787; stroke: #878787; stroke-width: 1.1"/>
      </g>
     </g>
     <g id="text_18">
      <!-- $\mathdefault{10^{0}}$ -->
      <g style="fill: #4a4a4a" transform="translate(423.978821 194.955375) scale(0.152 -0.152)">
       <use xlink:href="#Avenir-Book-31" transform="translate(0 0.842187)"/>
       <use xlink:href="#Avenir-Book-30" transform="translate(55.599991 0.842187)"/>
       <use xlink:href="#Avenir-Book-30" transform="translate(112.018927 33.6) scale(0.7)"/>
      </g>
     </g>
    </g>
    <g id="xtick_54">
     <g id="line2d_65">
      <g>
       <use xlink:href="#m29f43368ea" x="475.137366" y="179.265125" style="fill: #878787; stroke: #878787; stroke-width: 1.1"/>
      </g>
     </g>
     <g id="text_19">
      <!-- $\mathdefault{10^{1}}$ -->
      <g style="fill: #4a4a4a" transform="translate(463.433366 194.955375) scale(0.152 -0.152)">
       <use xlink:href="#Avenir-Book-31" transform="translate(0 0.684375)"/>
       <use xlink:href="#Avenir-Book-30" transform="translate(55.599991 0.684375)"/>
       <use xlink:href="#Avenir-Book-31" transform="translate(112.018927 33.442188) scale(0.7)"/>
      </g>
     </g>
    </g>
    <g id="xtick_55">
     <g id="line2d_66">
      <g>
       <use xlink:href="#m29f43368ea" x="514.591912" y="179.265125" style="fill: #878787; stroke: #878787; stroke-width: 1.1"/>
      </g>
     </g>
     <g id="text_20">
      <!-- $\mathdefault{10^{2}}$ -->
      <g style="fill: #4a4a4a" transform="translate(502.887912 194.955375) scale(0.152 -0.152)">
       <use xlink:href="#Avenir-Book-31" transform="translate(0 0.842187)"/>
       <use xlink:href="#Avenir-Book-30" transform="translate(55.599991 0.842187)"/>
       <use xlink:href="#Avenir-Book-32" transform="translate(112.018927 33.6) scale(0.7)"/>
      </g>
     </g>
    </g>
    <g id="xtick_56">
     <g id="line2d_67">
      <g>
       <use xlink:href="#m29f43368ea" x="554.046457" y="179.265125" style="fill: #878787; stroke: #878787; stroke-width: 1.1"/>
      </g>
     </g>
     <g id="text_21">
      <!-- $\mathdefault{10^{3}}$ -->
      <g style="fill: #4a4a4a" transform="translate(542.342457 194.955375) scale(0.152 -0.152)">
       <use xlink:href="#Avenir-Book-31" transform="translate(0 0.842187)"/>
       <use xlink:href="#Avenir-Book-30" transform="translate(55.599991 0.842187)"/>
       <use xlink:href="#Avenir-Book-33" transform="translate(112.018927 33.6) scale(0.7)"/>
      </g>
     </g>
    </g>
    <g id="xtick_57">
     <g id="line2d_68">
      <g>
       <use xlink:href="#m83fe1c4037" x="348.020789" y="179.265125" style="fill: #878787; stroke: #878787; stroke-width: 0.715"/>
      </g>
     </g>
    </g>
    <g id="xtick_58">
     <g id="line2d_69">
      <g>
       <use xlink:href="#m83fe1c4037" x="350.662144" y="179.265125" style="fill: #878787; stroke: #878787; stroke-width: 0.715"/>
      </g>
     </g>
    </g>
    <g id="xtick_59">
     <g id="line2d_70">
      <g>
       <use xlink:href="#m83fe1c4037" x="352.95019" y="179.265125" style="fill: #878787; stroke: #878787; stroke-width: 0.715"/>
      </g>
     </g>
    </g>
    <g id="xtick_60">
     <g id="line2d_71">
      <g>
       <use xlink:href="#m83fe1c4037" x="354.968389" y="179.265125" style="fill: #878787; stroke: #878787; stroke-width: 0.715"/>
      </g>
     </g>
    </g>
    <g id="xtick_61">
     <g id="line2d_72">
      <g>
       <use xlink:href="#m83fe1c4037" x="368.650732" y="179.265125" style="fill: #878787; stroke: #878787; stroke-width: 0.715"/>
      </g>
     </g>
    </g>
    <g id="xtick_62">
     <g id="line2d_73">
      <g>
       <use xlink:href="#m83fe1c4037" x="375.598332" y="179.265125" style="fill: #878787; stroke: #878787; stroke-width: 0.715"/>
      </g>
     </g>
    </g>
    <g id="xtick_63">
     <g id="line2d_74">
      <g>
       <use xlink:href="#m83fe1c4037" x="380.527733" y="179.265125" style="fill: #878787; stroke: #878787; stroke-width: 0.715"/>
      </g>
     </g>
    </g>
    <g id="xtick_64">
     <g id="line2d_75">
      <g>
       <use xlink:href="#m83fe1c4037" x="384.351274" y="179.265125" style="fill: #878787; stroke: #878787; stroke-width: 0.715"/>
      </g>
     </g>
    </g>
    <g id="xtick_65">
     <g id="line2d_76">
      <g>
       <use xlink:href="#m83fe1c4037" x="387.475334" y="179.265125" style="fill: #878787; stroke: #878787; stroke-width: 0.715"/>
      </g>
     </g>
    </g>
    <g id="xtick_66">
     <g id="line2d_77">
      <g>
       <use xlink:href="#m83fe1c4037" x="390.116689" y="179.265125" style="fill: #878787; stroke: #878787; stroke-width: 0.715"/>
      </g>
     </g>
    </g>
    <g id="xtick_67">
     <g id="line2d_78">
      <g>
       <use xlink:href="#m83fe1c4037" x="392.404735" y="179.265125" style="fill: #878787; stroke: #878787; stroke-width: 0.715"/>
      </g>
     </g>
    </g>
    <g id="xtick_68">
     <g id="line2d_79">
      <g>
       <use xlink:href="#m83fe1c4037" x="394.422935" y="179.265125" style="fill: #878787; stroke: #878787; stroke-width: 0.715"/>
      </g>
     </g>
    </g>
    <g id="xtick_69">
     <g id="line2d_80">
      <g>
       <use xlink:href="#m83fe1c4037" x="408.105277" y="179.265125" style="fill: #878787; stroke: #878787; stroke-width: 0.715"/>
      </g>
     </g>
    </g>
    <g id="xtick_70">
     <g id="line2d_81">
      <g>
       <use xlink:href="#m83fe1c4037" x="415.052878" y="179.265125" style="fill: #878787; stroke: #878787; stroke-width: 0.715"/>
      </g>
     </g>
    </g>
    <g id="xtick_71">
     <g id="line2d_82">
      <g>
       <use xlink:href="#m83fe1c4037" x="419.982279" y="179.265125" style="fill: #878787; stroke: #878787; stroke-width: 0.715"/>
      </g>
     </g>
    </g>
    <g id="xtick_72">
     <g id="line2d_83">
      <g>
       <use xlink:href="#m83fe1c4037" x="423.805819" y="179.265125" style="fill: #878787; stroke: #878787; stroke-width: 0.715"/>
      </g>
     </g>
    </g>
    <g id="xtick_73">
     <g id="line2d_84">
      <g>
       <use xlink:href="#m83fe1c4037" x="426.929879" y="179.265125" style="fill: #878787; stroke: #878787; stroke-width: 0.715"/>
      </g>
     </g>
    </g>
    <g id="xtick_74">
     <g id="line2d_85">
      <g>
       <use xlink:href="#m83fe1c4037" x="429.571235" y="179.265125" style="fill: #878787; stroke: #878787; stroke-width: 0.715"/>
      </g>
     </g>
    </g>
    <g id="xtick_75">
     <g id="line2d_86">
      <g>
       <use xlink:href="#m83fe1c4037" x="431.859281" y="179.265125" style="fill: #878787; stroke: #878787; stroke-width: 0.715"/>
      </g>
     </g>
    </g>
    <g id="xtick_76">
     <g id="line2d_87">
      <g>
       <use xlink:href="#m83fe1c4037" x="433.87748" y="179.265125" style="fill: #878787; stroke: #878787; stroke-width: 0.715"/>
      </g>
     </g>
    </g>
    <g id="xtick_77">
     <g id="line2d_88">
      <g>
       <use xlink:href="#m83fe1c4037" x="447.559823" y="179.265125" style="fill: #878787; stroke: #878787; stroke-width: 0.715"/>
      </g>
     </g>
    </g>
    <g id="xtick_78">
     <g id="line2d_89">
      <g>
       <use xlink:href="#m83fe1c4037" x="454.507423" y="179.265125" style="fill: #878787; stroke: #878787; stroke-width: 0.715"/>
      </g>
     </g>
    </g>
    <g id="xtick_79">
     <g id="line2d_90">
      <g>
       <use xlink:href="#m83fe1c4037" x="459.436824" y="179.265125" style="fill: #878787; stroke: #878787; stroke-width: 0.715"/>
      </g>
     </g>
    </g>
    <g id="xtick_80">
     <g id="line2d_91">
      <g>
       <use xlink:href="#m83fe1c4037" x="463.260365" y="179.265125" style="fill: #878787; stroke: #878787; stroke-width: 0.715"/>
      </g>
     </g>
    </g>
    <g id="xtick_81">
     <g id="line2d_92">
      <g>
       <use xlink:href="#m83fe1c4037" x="466.384425" y="179.265125" style="fill: #878787; stroke: #878787; stroke-width: 0.715"/>
      </g>
     </g>
    </g>
    <g id="xtick_82">
     <g id="line2d_93">
      <g>
       <use xlink:href="#m83fe1c4037" x="469.02578" y="179.265125" style="fill: #878787; stroke: #878787; stroke-width: 0.715"/>
      </g>
     </g>
    </g>
    <g id="xtick_83">
     <g id="line2d_94">
      <g>
       <use xlink:href="#m83fe1c4037" x="471.313826" y="179.265125" style="fill: #878787; stroke: #878787; stroke-width: 0.715"/>
      </g>
     </g>
    </g>
    <g id="xtick_84">
     <g id="line2d_95">
      <g>
       <use xlink:href="#m83fe1c4037" x="473.332025" y="179.265125" style="fill: #878787; stroke: #878787; stroke-width: 0.715"/>
      </g>
     </g>
    </g>
    <g id="xtick_85">
     <g id="line2d_96">
      <g>
       <use xlink:href="#m83fe1c4037" x="487.014368" y="179.265125" style="fill: #878787; stroke: #878787; stroke-width: 0.715"/>
      </g>
     </g>
    </g>
    <g id="xtick_86">
     <g id="line2d_97">
      <g>
       <use xlink:href="#m83fe1c4037" x="493.961969" y="179.265125" style="fill: #878787; stroke: #878787; stroke-width: 0.715"/>
      </g>
     </g>
    </g>
    <g id="xtick_87">
     <g id="line2d_98">
      <g>
       <use xlink:href="#m83fe1c4037" x="498.89137" y="179.265125" style="fill: #878787; stroke: #878787; stroke-width: 0.715"/>
      </g>
     </g>
    </g>
    <g id="xtick_88">
     <g id="line2d_99">
      <g>
       <use xlink:href="#m83fe1c4037" x="502.71491" y="179.265125" style="fill: #878787; stroke: #878787; stroke-width: 0.715"/>
      </g>
     </g>
    </g>
    <g id="xtick_89">
     <g id="line2d_100">
      <g>
       <use xlink:href="#m83fe1c4037" x="505.83897" y="179.265125" style="fill: #878787; stroke: #878787; stroke-width: 0.715"/>
      </g>
     </g>
    </g>
    <g id="xtick_90">
     <g id="line2d_101">
      <g>
       <use xlink:href="#m83fe1c4037" x="508.480326" y="179.265125" style="fill: #878787; stroke: #878787; stroke-width: 0.715"/>
      </g>
     </g>
    </g>
    <g id="xtick_91">
     <g id="line2d_102">
      <g>
       <use xlink:href="#m83fe1c4037" x="510.768371" y="179.265125" style="fill: #878787; stroke: #878787; stroke-width: 0.715"/>
      </g>
     </g>
    </g>
    <g id="xtick_92">
     <g id="line2d_103">
      <g>
       <use xlink:href="#m83fe1c4037" x="512.786571" y="179.265125" style="fill: #878787; stroke: #878787; stroke-width: 0.715"/>
      </g>
     </g>
    </g>
    <g id="xtick_93">
     <g id="line2d_104">
      <g>
       <use xlink:href="#m83fe1c4037" x="526.468914" y="179.265125" style="fill: #878787; stroke: #878787; stroke-width: 0.715"/>
      </g>
     </g>
    </g>
    <g id="xtick_94">
     <g id="line2d_105">
      <g>
       <use xlink:href="#m83fe1c4037" x="533.416514" y="179.265125" style="fill: #878787; stroke: #878787; stroke-width: 0.715"/>
      </g>
     </g>
    </g>
    <g id="xtick_95">
     <g id="line2d_106">
      <g>
       <use xlink:href="#m83fe1c4037" x="538.345915" y="179.265125" style="fill: #878787; stroke: #878787; stroke-width: 0.715"/>
      </g>
     </g>
    </g>
    <g id="xtick_96">
     <g id="line2d_107">
      <g>
       <use xlink:href="#m83fe1c4037" x="542.169456" y="179.265125" style="fill: #878787; stroke: #878787; stroke-width: 0.715"/>
      </g>
     </g>
    </g>
    <g id="xtick_97">
     <g id="line2d_108">
      <g>
       <use xlink:href="#m83fe1c4037" x="545.293516" y="179.265125" style="fill: #878787; stroke: #878787; stroke-width: 0.715"/>
      </g>
     </g>
    </g>
    <g id="xtick_98">
     <g id="line2d_109">
      <g>
       <use xlink:href="#m83fe1c4037" x="547.934871" y="179.265125" style="fill: #878787; stroke: #878787; stroke-width: 0.715"/>
      </g>
     </g>
    </g>
    <g id="xtick_99">
     <g id="line2d_110">
      <g>
       <use xlink:href="#m83fe1c4037" x="550.222917" y="179.265125" style="fill: #878787; stroke: #878787; stroke-width: 0.715"/>
      </g>
     </g>
    </g>
    <g id="xtick_100">
     <g id="line2d_111">
      <g>
       <use xlink:href="#m83fe1c4037" x="552.241116" y="179.265125" style="fill: #878787; stroke: #878787; stroke-width: 0.715"/>
      </g>
     </g>
    </g>
    <g id="text_22">
     <!-- $\sigma$ -->
     <g style="fill: #262626" transform="translate(449.900094 217.695313) scale(0.19 -0.19)">
      <use xlink:href="#Cmmi10-be" transform="translate(0 0.890625)"/>
     </g>
    </g>
   </g>
   <g id="matplotlib.axis_4">
    <g id="ytick_4">
     <g id="line2d_112">
      <g>
       <use xlink:href="#m3200314792" x="346.910094" y="174.067625" style="fill: #878787; stroke: #878787; stroke-width: 1.1"/>
      </g>
     </g>
     <g id="text_23">
      <!-- 0 -->
      <g style="fill: #4a4a4a" transform="translate(334.259844 179.81275) scale(0.152 -0.152)">
       <use xlink:href="#Avenir-Book-30"/>
      </g>
     </g>
    </g>
    <g id="ytick_5">
     <g id="line2d_113">
      <g>
       <use xlink:href="#m3200314792" x="346.910094" y="122.092625" style="fill: #878787; stroke: #878787; stroke-width: 1.1"/>
      </g>
     </g>
     <g id="text_24">
      <!-- 1 -->
      <g style="fill: #4a4a4a" transform="translate(334.259844 127.83775) scale(0.152 -0.152)">
       <use xlink:href="#Avenir-Book-31"/>
      </g>
     </g>
    </g>
    <g id="ytick_6">
     <g id="line2d_114">
      <g>
       <use xlink:href="#m3200314792" x="346.910094" y="70.117625" style="fill: #878787; stroke: #878787; stroke-width: 1.1"/>
      </g>
     </g>
     <g id="text_25">
      <!-- 2 -->
      <g style="fill: #4a4a4a" transform="translate(334.259844 75.86275) scale(0.152 -0.152)">
       <use xlink:href="#Avenir-Book-32"/>
      </g>
     </g>
    </g>
    <g id="ytick_7">
     <g id="line2d_115">
      <g>
       <use xlink:href="#m3200314792" x="346.910094" y="18.142625" style="fill: #878787; stroke: #878787; stroke-width: 1.1"/>
      </g>
     </g>
     <g id="text_26">
      <!-- 3 -->
      <g style="fill: #4a4a4a" transform="translate(334.259844 23.88775) scale(0.152 -0.152)">
       <use xlink:href="#Avenir-Book-33"/>
      </g>
     </g>
    </g>
    <g id="text_27">
     <!-- $\dot{S}_{a}$ -->
     <g style="fill: #262626" transform="translate(324.788438 106.555125) rotate(-90) scale(0.19 -0.19)">
      <defs>
       <path id="Cmr10-5f" d="M 538 3928 
Q 538 4069 644 4175 
Q 750 4281 891 4281 
Q 978 4281 1062 4234 
Q 1147 4188 1194 4103 
Q 1241 4019 1241 3928 
Q 1241 3791 1137 3684 
Q 1034 3578 891 3578 
Q 750 3578 644 3684 
Q 538 3791 538 3928 
z
" transform="scale(0.015625)"/>
       <path id="Cmmi10-53" d="M 391 -141 
Q 372 -141 356 -119 
Q 341 -97 341 -78 
L 709 1416 
Q 722 1453 763 1453 
L 838 1453 
Q 863 1453 877 1434 
Q 891 1416 891 1388 
Q 838 1169 838 997 
Q 838 534 1156 309 
Q 1475 84 1959 84 
Q 2169 84 2372 187 
Q 2575 291 2726 456 
Q 2878 622 2968 826 
Q 3059 1031 3059 1241 
Q 3059 1466 2940 1642 
Q 2822 1819 2613 1869 
L 1831 2075 
Q 1516 2159 1328 2414 
Q 1141 2669 1141 2988 
Q 1141 3372 1369 3728 
Q 1597 4084 1964 4298 
Q 2331 4513 2713 4513 
Q 3006 4513 3251 4405 
Q 3497 4297 3628 4063 
L 3994 4494 
Q 4031 4513 4038 4513 
L 4078 4513 
Q 4103 4513 4118 4491 
Q 4134 4469 4134 4447 
L 3763 2963 
Q 3753 2919 3713 2919 
L 3634 2919 
Q 3578 2919 3578 2988 
Q 3609 3191 3609 3341 
Q 3609 3638 3507 3858 
Q 3406 4078 3201 4192 
Q 2997 4306 2694 4306 
Q 2438 4306 2184 4159 
Q 1931 4013 1775 3769 
Q 1619 3525 1619 3263 
Q 1619 3056 1739 2897 
Q 1859 2738 2059 2681 
L 2841 2478 
Q 3053 2422 3211 2280 
Q 3369 2138 3450 1942 
Q 3531 1747 3531 1516 
Q 3531 1213 3403 917 
Q 3275 622 3045 378 
Q 2816 134 2525 -3 
Q 2234 -141 1931 -141 
Q 1169 -141 838 306 
L 481 -122 
Q 444 -141 434 -141 
L 391 -141 
z
" transform="scale(0.015625)"/>
      </defs>
      <use xlink:href="#Cmr10-5f" transform="translate(23.913574 27.109375)"/>
      <use xlink:href="#Cmmi10-53"/>
      <use xlink:href="#Cmmi10-61" transform="translate(65.743437 -17.00625) scale(0.7)"/>
     </g>
    </g>
   </g>
   <g id="line2d_116">
    <path d="M 356.77373 138.745191 
L 381.235548 138.613753 
L 390.310094 138.353076 
L 395.83373 137.996269 
L 400.17373 137.509494 
L 403.724639 136.894678 
L 406.881003 136.110898 
L 409.642821 135.178254 
L 412.010094 134.14624 
L 414.377366 132.854612 
L 416.350094 131.549537 
L 418.322821 130.013813 
L 420.295548 128.2326 
L 422.662821 125.765253 
L 425.030094 122.956703 
L 427.791912 119.322916 
L 433.315548 111.532422 
L 436.471912 107.287663 
L 438.839185 104.434619 
L 440.811912 102.351113 
L 442.784639 100.57513 
L 444.757366 99.130281 
L 446.335548 98.222432 
L 447.91373 97.540265 
L 449.491912 97.088126 
L 451.070094 96.871625 
L 452.648276 96.899137 
L 454.226457 97.18321 
L 455.804639 97.741879 
L 457.382821 98.599899 
L 458.961003 99.789907 
L 460.539185 101.353425 
L 462.117366 103.34154 
L 463.695548 105.814808 
L 465.27373 108.841497 
L 466.851912 112.492448 
L 468.430094 116.829554 
L 470.008276 121.883375 
L 471.981003 129.140235 
L 478.29373 153.720155 
L 479.871912 158.45625 
L 481.450094 162.354035 
L 483.028276 165.501776 
L 484.606457 168.023759 
L 486.184639 170.041609 
L 487.762821 171.659393 
L 489.341003 172.961052 
L 490.919185 174.012597 
L 492.102821 174.067625 
L 554.046457 174.067625 
L 554.046457 174.067625 
" clip-path="url(#p2aa16085cf)" style="fill: none; stroke-dasharray: 3.7,1.6; stroke-dashoffset: 0; stroke: #dc6400; stroke-linecap: round"/>
   </g>
   <g id="line2d_117">
    <path d="M 356.77373 174.067625 
L 423.057366 174.067625 
L 423.451912 173.904979 
L 431.737366 153.955816 
L 434.104639 149.033284 
L 436.077366 145.458591 
L 437.655548 142.996147 
L 439.23373 140.90786 
L 440.811912 139.196359 
L 442.390094 137.84938 
L 443.968276 136.841852 
L 445.546457 136.138854 
L 447.124639 135.698997 
L 448.702821 135.477835 
L 450.675548 135.441435 
L 453.042821 135.64444 
L 456.59373 136.217713 
L 465.27373 137.707013 
L 470.008276 138.252921 
L 475.531912 138.654488 
L 482.63373 138.926358 
L 493.286457 139.083941 
L 516.170094 139.14487 
L 554.046457 139.149377 
L 554.046457 139.149377 
" clip-path="url(#p2aa16085cf)" style="fill: none; stroke-dasharray: 3.7,1.6; stroke-dashoffset: 0; stroke: #0f4c5c; stroke-linecap: round"/>
   </g>
   <g id="line2d_118">
    <path d="M 356.77373 169.842703 
L 381.630094 169.710093 
L 390.704639 169.447651 
L 396.228276 169.088076 
L 400.568276 168.596848 
L 404.119185 167.975265 
L 407.275548 167.180936 
L 410.037366 166.232793 
L 412.404639 165.179683 
L 414.771912 163.855389 
L 416.744639 162.50966 
L 418.717366 160.915289 
L 420.690094 159.049754 
L 422.662821 156.897711 
L 424.635548 154.454034 
L 427.002821 151.147939 
L 429.370094 147.470359 
L 432.131912 142.788839 
L 435.682821 136.307708 
L 439.628276 128.637923 
L 442.784639 122.073922 
L 445.546457 115.810574 
L 447.91373 109.838123 
L 449.886457 104.265931 
L 451.859185 97.994201 
L 453.831912 90.859562 
L 455.804639 82.687034 
L 457.382821 75.277591 
L 458.961003 66.986131 
L 460.539185 57.708918 
L 462.117366 47.337357 
L 463.695548 35.757187 
L 465.668276 19.397369 
L 467.641003 0.705516 
L 467.807473 -1 
L 467.807473 -1 
" clip-path="url(#p2aa16085cf)" style="fill: none; stroke: #bc4749; stroke-width: 2; stroke-linecap: round"/>
   </g>
   <g id="line2d_119">
    <path d="M 356.77373 174.067625 
L 428.975548 174.067625 
L 429.764639 172.501803 
L 434.104639 163.351335 
L 436.866457 158.036457 
L 439.23373 153.915103 
L 441.601003 150.205323 
L 444.362821 146.321786 
L 448.308276 141.249834 
L 451.859185 136.617263 
L 454.226457 133.185601 
L 456.199185 129.964369 
L 458.171912 126.306666 
L 460.144639 122.113381 
L 462.117366 117.286113 
L 464.090094 111.725409 
L 466.062821 105.328672 
L 468.035548 97.987874 
L 470.008276 89.587201 
L 471.981003 80.000658 
L 473.95373 69.089645 
L 475.926457 56.700477 
L 477.899185 42.661824 
L 479.871912 26.782012 
L 481.844639 8.846138 
L 482.83303 -1 
L 482.83303 -1 
" clip-path="url(#p2aa16085cf)" style="fill: none; stroke: #000000; stroke-width: 2; stroke-linecap: round"/>
   </g>
   <g id="patch_9">
    <path d="M 346.910094 179.265125 
L 346.910094 12.945125 
" style="fill: none; stroke: #878787; stroke-width: 0.7; stroke-linejoin: miter; stroke-linecap: square"/>
   </g>
   <g id="patch_10">
    <path d="M 563.910094 179.265125 
L 563.910094 12.945125 
" style="fill: none; stroke: #878787; stroke-width: 0.7; stroke-linejoin: miter; stroke-linecap: square"/>
   </g>
   <g id="patch_11">
    <path d="M 346.910094 179.265125 
L 563.910094 179.265125 
" style="fill: none; stroke: #878787; stroke-width: 0.7; stroke-linejoin: miter; stroke-linecap: square"/>
   </g>
   <g id="patch_12">
    <path d="M 346.910094 12.945125 
L 563.910094 12.945125 
" style="fill: none; stroke: #878787; stroke-width: 0.7; stroke-linejoin: miter; stroke-linecap: square"/>
   </g>
  </g>
  <g id="axes_3">
   <g id="patch_13">
    <path d="M 629.010094 179.265125 
L 846.010094 179.265125 
L 846.010094 12.945125 
L 629.010094 12.945125 
L 629.010094 179.265125 
z
" style="fill: none"/>
   </g>
   <g id="matplotlib.axis_5">
    <g id="xtick_101">
     <g id="line2d_120">
      <g>
       <use xlink:href="#m29f43368ea" x="629.010094" y="179.265125" style="fill: #878787; stroke: #878787; stroke-width: 1.1"/>
      </g>
     </g>
     <g id="text_28">
      <!-- $\mathdefault{10^{0}}$ -->
      <g style="fill: #4a4a4a" transform="translate(617.306094 194.955375) scale(0.152 -0.152)">
       <use xlink:href="#Avenir-Book-31" transform="translate(0 0.842187)"/>
       <use xlink:href="#Avenir-Book-30" transform="translate(55.599991 0.842187)"/>
       <use xlink:href="#Avenir-Book-30" transform="translate(112.018927 33.6) scale(0.7)"/>
      </g>
     </g>
    </g>
    <g id="xtick_102">
     <g id="line2d_121">
      <g>
       <use xlink:href="#m29f43368ea" x="700.358986" y="179.265125" style="fill: #878787; stroke: #878787; stroke-width: 1.1"/>
      </g>
     </g>
     <g id="text_29">
      <!-- $\mathdefault{10^{1}}$ -->
      <g style="fill: #4a4a4a" transform="translate(688.654986 194.955375) scale(0.152 -0.152)">
       <use xlink:href="#Avenir-Book-31" transform="translate(0 0.684375)"/>
       <use xlink:href="#Avenir-Book-30" transform="translate(55.599991 0.684375)"/>
       <use xlink:href="#Avenir-Book-31" transform="translate(112.018927 33.442188) scale(0.7)"/>
      </g>
     </g>
    </g>
    <g id="xtick_103">
     <g id="line2d_122">
      <g>
       <use xlink:href="#m29f43368ea" x="771.707879" y="179.265125" style="fill: #878787; stroke: #878787; stroke-width: 1.1"/>
      </g>
     </g>
     <g id="text_30">
      <!-- $\mathdefault{10^{2}}$ -->
      <g style="fill: #4a4a4a" transform="translate(760.003879 194.955375) scale(0.152 -0.152)">
       <use xlink:href="#Avenir-Book-31" transform="translate(0 0.842187)"/>
       <use xlink:href="#Avenir-Book-30" transform="translate(55.599991 0.842187)"/>
       <use xlink:href="#Avenir-Book-32" transform="translate(112.018927 33.6) scale(0.7)"/>
      </g>
     </g>
    </g>
    <g id="xtick_104">
     <g id="line2d_123">
      <g>
       <use xlink:href="#m29f43368ea" x="843.056772" y="179.265125" style="fill: #878787; stroke: #878787; stroke-width: 1.1"/>
      </g>
     </g>
     <g id="text_31">
      <!-- $\mathdefault{10^{3}}$ -->
      <g style="fill: #4a4a4a" transform="translate(831.352772 194.955375) scale(0.152 -0.152)">
       <use xlink:href="#Avenir-Book-31" transform="translate(0 0.842187)"/>
       <use xlink:href="#Avenir-Book-30" transform="translate(55.599991 0.842187)"/>
       <use xlink:href="#Avenir-Book-33" transform="translate(112.018927 33.6) scale(0.7)"/>
      </g>
     </g>
    </g>
    <g id="xtick_105">
     <g id="line2d_124">
      <g>
       <use xlink:href="#m83fe1c4037" x="650.488251" y="179.265125" style="fill: #878787; stroke: #878787; stroke-width: 0.715"/>
      </g>
     </g>
    </g>
    <g id="xtick_106">
     <g id="line2d_125">
      <g>
       <use xlink:href="#m83fe1c4037" x="663.052167" y="179.265125" style="fill: #878787; stroke: #878787; stroke-width: 0.715"/>
      </g>
     </g>
    </g>
    <g id="xtick_107">
     <g id="line2d_126">
      <g>
       <use xlink:href="#m83fe1c4037" x="671.966407" y="179.265125" style="fill: #878787; stroke: #878787; stroke-width: 0.715"/>
      </g>
     </g>
    </g>
    <g id="xtick_108">
     <g id="line2d_127">
      <g>
       <use xlink:href="#m83fe1c4037" x="678.88083" y="179.265125" style="fill: #878787; stroke: #878787; stroke-width: 0.715"/>
      </g>
     </g>
    </g>
    <g id="xtick_109">
     <g id="line2d_128">
      <g>
       <use xlink:href="#m83fe1c4037" x="684.530324" y="179.265125" style="fill: #878787; stroke: #878787; stroke-width: 0.715"/>
      </g>
     </g>
    </g>
    <g id="xtick_110">
     <g id="line2d_129">
      <g>
       <use xlink:href="#m83fe1c4037" x="689.306903" y="179.265125" style="fill: #878787; stroke: #878787; stroke-width: 0.715"/>
      </g>
     </g>
    </g>
    <g id="xtick_111">
     <g id="line2d_130">
      <g>
       <use xlink:href="#m83fe1c4037" x="693.444564" y="179.265125" style="fill: #878787; stroke: #878787; stroke-width: 0.715"/>
      </g>
     </g>
    </g>
    <g id="xtick_112">
     <g id="line2d_131">
      <g>
       <use xlink:href="#m83fe1c4037" x="697.09424" y="179.265125" style="fill: #878787; stroke: #878787; stroke-width: 0.715"/>
      </g>
     </g>
    </g>
    <g id="xtick_113">
     <g id="line2d_132">
      <g>
       <use xlink:href="#m83fe1c4037" x="721.837143" y="179.265125" style="fill: #878787; stroke: #878787; stroke-width: 0.715"/>
      </g>
     </g>
    </g>
    <g id="xtick_114">
     <g id="line2d_133">
      <g>
       <use xlink:href="#m83fe1c4037" x="734.401059" y="179.265125" style="fill: #878787; stroke: #878787; stroke-width: 0.715"/>
      </g>
     </g>
    </g>
    <g id="xtick_115">
     <g id="line2d_134">
      <g>
       <use xlink:href="#m83fe1c4037" x="743.3153" y="179.265125" style="fill: #878787; stroke: #878787; stroke-width: 0.715"/>
      </g>
     </g>
    </g>
    <g id="xtick_116">
     <g id="line2d_135">
      <g>
       <use xlink:href="#m83fe1c4037" x="750.229722" y="179.265125" style="fill: #878787; stroke: #878787; stroke-width: 0.715"/>
      </g>
     </g>
    </g>
    <g id="xtick_117">
     <g id="line2d_136">
      <g>
       <use xlink:href="#m83fe1c4037" x="755.879216" y="179.265125" style="fill: #878787; stroke: #878787; stroke-width: 0.715"/>
      </g>
     </g>
    </g>
    <g id="xtick_118">
     <g id="line2d_137">
      <g>
       <use xlink:href="#m83fe1c4037" x="760.655796" y="179.265125" style="fill: #878787; stroke: #878787; stroke-width: 0.715"/>
      </g>
     </g>
    </g>
    <g id="xtick_119">
     <g id="line2d_138">
      <g>
       <use xlink:href="#m83fe1c4037" x="764.793457" y="179.265125" style="fill: #878787; stroke: #878787; stroke-width: 0.715"/>
      </g>
     </g>
    </g>
    <g id="xtick_120">
     <g id="line2d_139">
      <g>
       <use xlink:href="#m83fe1c4037" x="768.443133" y="179.265125" style="fill: #878787; stroke: #878787; stroke-width: 0.715"/>
      </g>
     </g>
    </g>
    <g id="xtick_121">
     <g id="line2d_140">
      <g>
       <use xlink:href="#m83fe1c4037" x="793.186036" y="179.265125" style="fill: #878787; stroke: #878787; stroke-width: 0.715"/>
      </g>
     </g>
    </g>
    <g id="xtick_122">
     <g id="line2d_141">
      <g>
       <use xlink:href="#m83fe1c4037" x="805.749952" y="179.265125" style="fill: #878787; stroke: #878787; stroke-width: 0.715"/>
      </g>
     </g>
    </g>
    <g id="xtick_123">
     <g id="line2d_142">
      <g>
       <use xlink:href="#m83fe1c4037" x="814.664193" y="179.265125" style="fill: #878787; stroke: #878787; stroke-width: 0.715"/>
      </g>
     </g>
    </g>
    <g id="xtick_124">
     <g id="line2d_143">
      <g>
       <use xlink:href="#m83fe1c4037" x="821.578615" y="179.265125" style="fill: #878787; stroke: #878787; stroke-width: 0.715"/>
      </g>
     </g>
    </g>
    <g id="xtick_125">
     <g id="line2d_144">
      <g>
       <use xlink:href="#m83fe1c4037" x="827.228109" y="179.265125" style="fill: #878787; stroke: #878787; stroke-width: 0.715"/>
      </g>
     </g>
    </g>
    <g id="xtick_126">
     <g id="line2d_145">
      <g>
       <use xlink:href="#m83fe1c4037" x="832.004688" y="179.265125" style="fill: #878787; stroke: #878787; stroke-width: 0.715"/>
      </g>
     </g>
    </g>
    <g id="xtick_127">
     <g id="line2d_146">
      <g>
       <use xlink:href="#m83fe1c4037" x="836.142349" y="179.265125" style="fill: #878787; stroke: #878787; stroke-width: 0.715"/>
      </g>
     </g>
    </g>
    <g id="xtick_128">
     <g id="line2d_147">
      <g>
       <use xlink:href="#m83fe1c4037" x="839.792025" y="179.265125" style="fill: #878787; stroke: #878787; stroke-width: 0.715"/>
      </g>
     </g>
    </g>
    <g id="text_32">
     <!-- $\sigma$ -->
     <g style="fill: #262626" transform="translate(732.000094 217.695313) scale(0.19 -0.19)">
      <use xlink:href="#Cmmi10-be" transform="translate(0 0.890625)"/>
     </g>
    </g>
   </g>
   <g id="matplotlib.axis_6">
    <g id="ytick_8">
     <g id="line2d_148">
      <g>
       <use xlink:href="#m3200314792" x="629.010094" y="164.097947" style="fill: #878787; stroke: #878787; stroke-width: 1.1"/>
      </g>
     </g>
     <g id="text_33">
      <!-- $\mathdefault{10^{0}}$ -->
      <g style="fill: #4a4a4a" transform="translate(601.402094 169.843072) scale(0.152 -0.152)">
       <use xlink:href="#Avenir-Book-31" transform="translate(0 0.842187)"/>
       <use xlink:href="#Avenir-Book-30" transform="translate(55.599991 0.842187)"/>
       <use xlink:href="#Avenir-Book-30" transform="translate(112.018927 33.6) scale(0.7)"/>
      </g>
     </g>
    </g>
    <g id="ytick_9">
     <g id="line2d_149">
      <g>
       <use xlink:href="#m3200314792" x="629.010094" y="113.713673" style="fill: #878787; stroke: #878787; stroke-width: 1.1"/>
      </g>
     </g>
     <g id="text_34">
      <!-- $\mathdefault{10^{1}}$ -->
      <g style="fill: #4a4a4a" transform="translate(601.402094 119.458798) scale(0.152 -0.152)">
       <use xlink:href="#Avenir-Book-31" transform="translate(0 0.684375)"/>
       <use xlink:href="#Avenir-Book-30" transform="translate(55.599991 0.684375)"/>
       <use xlink:href="#Avenir-Book-31" transform="translate(112.018927 33.442188) scale(0.7)"/>
      </g>
     </g>
    </g>
    <g id="ytick_10">
     <g id="line2d_150">
      <g>
       <use xlink:href="#m3200314792" x="629.010094" y="63.329399" style="fill: #878787; stroke: #878787; stroke-width: 1.1"/>
      </g>
     </g>
     <g id="text_35">
      <!-- $\mathdefault{10^{2}}$ -->
      <g style="fill: #4a4a4a" transform="translate(601.402094 69.074524) scale(0.152 -0.152)">
       <use xlink:href="#Avenir-Book-31" transform="translate(0 0.842187)"/>
       <use xlink:href="#Avenir-Book-30" transform="translate(55.599991 0.842187)"/>
       <use xlink:href="#Avenir-Book-32" transform="translate(112.018927 33.6) scale(0.7)"/>
      </g>
     </g>
    </g>
    <g id="ytick_11">
     <g id="line2d_151">
      <g>
       <use xlink:href="#m3200314792" x="629.010094" y="12.945125" style="fill: #878787; stroke: #878787; stroke-width: 1.1"/>
      </g>
     </g>
     <g id="text_36">
      <!-- $\mathdefault{10^{3}}$ -->
      <g style="fill: #4a4a4a" transform="translate(601.402094 18.69025) scale(0.152 -0.152)">
       <use xlink:href="#Avenir-Book-31" transform="translate(0 0.842187)"/>
       <use xlink:href="#Avenir-Book-30" transform="translate(55.599991 0.842187)"/>
       <use xlink:href="#Avenir-Book-33" transform="translate(112.018927 33.6) scale(0.7)"/>
      </g>
     </g>
    </g>
    <g id="ytick_12">
     <g id="line2d_152">
      <defs>
       <path id="m8554be99ee" d="M 0 0 
L -1.7 0 
" style="stroke: #878787; stroke-width: 0.715"/>
      </defs>
      <g>
       <use xlink:href="#m8554be99ee" x="629.010094" y="179.265125" style="fill: #878787; stroke: #878787; stroke-width: 0.715"/>
      </g>
     </g>
    </g>
    <g id="ytick_13">
     <g id="line2d_153">
      <g>
       <use xlink:href="#m8554be99ee" x="629.010094" y="175.275635" style="fill: #878787; stroke: #878787; stroke-width: 0.715"/>
      </g>
     </g>
    </g>
    <g id="ytick_14">
     <g id="line2d_154">
      <g>
       <use xlink:href="#m8554be99ee" x="629.010094" y="171.90257" style="fill: #878787; stroke: #878787; stroke-width: 0.715"/>
      </g>
     </g>
    </g>
    <g id="ytick_15">
     <g id="line2d_155">
      <g>
       <use xlink:href="#m8554be99ee" x="629.010094" y="168.980688" style="fill: #878787; stroke: #878787; stroke-width: 0.715"/>
      </g>
     </g>
    </g>
    <g id="ytick_16">
     <g id="line2d_156">
      <g>
       <use xlink:href="#m8554be99ee" x="629.010094" y="166.403405" style="fill: #878787; stroke: #878787; stroke-width: 0.715"/>
      </g>
     </g>
    </g>
    <g id="ytick_17">
     <g id="line2d_157">
      <g>
       <use xlink:href="#m8554be99ee" x="629.010094" y="148.930769" style="fill: #878787; stroke: #878787; stroke-width: 0.715"/>
      </g>
     </g>
    </g>
    <g id="ytick_18">
     <g id="line2d_158">
      <g>
       <use xlink:href="#m8554be99ee" x="629.010094" y="140.058539" style="fill: #878787; stroke: #878787; stroke-width: 0.715"/>
      </g>
     </g>
    </g>
    <g id="ytick_19">
     <g id="line2d_159">
      <g>
       <use xlink:href="#m8554be99ee" x="629.010094" y="133.763592" style="fill: #878787; stroke: #878787; stroke-width: 0.715"/>
      </g>
     </g>
    </g>
    <g id="ytick_20">
     <g id="line2d_160">
      <g>
       <use xlink:href="#m8554be99ee" x="629.010094" y="128.880851" style="fill: #878787; stroke: #878787; stroke-width: 0.715"/>
      </g>
     </g>
    </g>
    <g id="ytick_21">
     <g id="line2d_161">
      <g>
       <use xlink:href="#m8554be99ee" x="629.010094" y="124.891361" style="fill: #878787; stroke: #878787; stroke-width: 0.715"/>
      </g>
     </g>
    </g>
    <g id="ytick_22">
     <g id="line2d_162">
      <g>
       <use xlink:href="#m8554be99ee" x="629.010094" y="121.518296" style="fill: #878787; stroke: #878787; stroke-width: 0.715"/>
      </g>
     </g>
    </g>
    <g id="ytick_23">
     <g id="line2d_163">
      <g>
       <use xlink:href="#m8554be99ee" x="629.010094" y="118.596414" style="fill: #878787; stroke: #878787; stroke-width: 0.715"/>
      </g>
     </g>
    </g>
    <g id="ytick_24">
     <g id="line2d_164">
      <g>
       <use xlink:href="#m8554be99ee" x="629.010094" y="116.019131" style="fill: #878787; stroke: #878787; stroke-width: 0.715"/>
      </g>
     </g>
    </g>
    <g id="ytick_25">
     <g id="line2d_165">
      <g>
       <use xlink:href="#m8554be99ee" x="629.010094" y="98.546495" style="fill: #878787; stroke: #878787; stroke-width: 0.715"/>
      </g>
     </g>
    </g>
    <g id="ytick_26">
     <g id="line2d_166">
      <g>
       <use xlink:href="#m8554be99ee" x="629.010094" y="89.674265" style="fill: #878787; stroke: #878787; stroke-width: 0.715"/>
      </g>
     </g>
    </g>
    <g id="ytick_27">
     <g id="line2d_167">
      <g>
       <use xlink:href="#m8554be99ee" x="629.010094" y="83.379318" style="fill: #878787; stroke: #878787; stroke-width: 0.715"/>
      </g>
     </g>
    </g>
    <g id="ytick_28">
     <g id="line2d_168">
      <g>
       <use xlink:href="#m8554be99ee" x="629.010094" y="78.496577" style="fill: #878787; stroke: #878787; stroke-width: 0.715"/>
      </g>
     </g>
    </g>
    <g id="ytick_29">
     <g id="line2d_169">
      <g>
       <use xlink:href="#m8554be99ee" x="629.010094" y="74.507087" style="fill: #878787; stroke: #878787; stroke-width: 0.715"/>
      </g>
     </g>
    </g>
    <g id="ytick_30">
     <g id="line2d_170">
      <g>
       <use xlink:href="#m8554be99ee" x="629.010094" y="71.134022" style="fill: #878787; stroke: #878787; stroke-width: 0.715"/>
      </g>
     </g>
    </g>
    <g id="ytick_31">
     <g id="line2d_171">
      <g>
       <use xlink:href="#m8554be99ee" x="629.010094" y="68.21214" style="fill: #878787; stroke: #878787; stroke-width: 0.715"/>
      </g>
     </g>
    </g>
    <g id="ytick_32">
     <g id="line2d_172">
      <g>
       <use xlink:href="#m8554be99ee" x="629.010094" y="65.634857" style="fill: #878787; stroke: #878787; stroke-width: 0.715"/>
      </g>
     </g>
    </g>
    <g id="ytick_33">
     <g id="line2d_173">
      <g>
       <use xlink:href="#m8554be99ee" x="629.010094" y="48.162221" style="fill: #878787; stroke: #878787; stroke-width: 0.715"/>
      </g>
     </g>
    </g>
    <g id="ytick_34">
     <g id="line2d_174">
      <g>
       <use xlink:href="#m8554be99ee" x="629.010094" y="39.289991" style="fill: #878787; stroke: #878787; stroke-width: 0.715"/>
      </g>
     </g>
    </g>
    <g id="ytick_35">
     <g id="line2d_175">
      <g>
       <use xlink:href="#m8554be99ee" x="629.010094" y="32.995043" style="fill: #878787; stroke: #878787; stroke-width: 0.715"/>
      </g>
     </g>
    </g>
    <g id="ytick_36">
     <g id="line2d_176">
      <g>
       <use xlink:href="#m8554be99ee" x="629.010094" y="28.112303" style="fill: #878787; stroke: #878787; stroke-width: 0.715"/>
      </g>
     </g>
    </g>
    <g id="ytick_37">
     <g id="line2d_177">
      <g>
       <use xlink:href="#m8554be99ee" x="629.010094" y="24.122813" style="fill: #878787; stroke: #878787; stroke-width: 0.715"/>
      </g>
     </g>
    </g>
    <g id="ytick_38">
     <g id="line2d_178">
      <g>
       <use xlink:href="#m8554be99ee" x="629.010094" y="20.749748" style="fill: #878787; stroke: #878787; stroke-width: 0.715"/>
      </g>
     </g>
    </g>
    <g id="ytick_39">
     <g id="line2d_179">
      <g>
       <use xlink:href="#m8554be99ee" x="629.010094" y="17.827866" style="fill: #878787; stroke: #878787; stroke-width: 0.715"/>
      </g>
     </g>
    </g>
    <g id="ytick_40">
     <g id="line2d_180">
      <g>
       <use xlink:href="#m8554be99ee" x="629.010094" y="15.250583" style="fill: #878787; stroke: #878787; stroke-width: 0.715"/>
      </g>
     </g>
    </g>
    <g id="text_37">
     <!-- $\dot{S}_a$ -->
     <g style="fill: #262626" transform="translate(591.930687 106.555125) rotate(-90) scale(0.19 -0.19)">
      <use xlink:href="#Cmr10-5f" transform="translate(23.913574 27.109375)"/>
      <use xlink:href="#Cmmi10-53"/>
      <use xlink:href="#Cmmi10-61" transform="translate(65.743437 -17.00625) scale(0.7)"/>
     </g>
    </g>
   </g>
   <g id="line2d_181">
    <path d="M 486.312309 219.015587 
L 512.711399 218.83646 
L 526.267688 218.534032 
L 535.543044 218.116948 
L 542.677934 217.588835 
L 548.385845 216.970603 
L 553.380268 216.234706 
L 558.37469 215.264584 
L 562.655624 214.204263 
L 566.936557 212.894426 
L 570.504002 211.58773 
L 574.071446 210.068028 
L 577.638891 208.324457 
L 581.206336 206.353329 
L 584.77378 204.159675 
L 589.054714 201.254834 
L 594.049136 197.54709 
L 599.757048 193.012273 
L 615.453804 180.36342 
L 620.448227 176.694502 
L 625.442649 173.317229 
L 630.437072 170.239332 
L 635.431494 167.426856 
L 641.852894 164.090075 
L 658.976629 155.376851 
L 665.398029 151.750804 
L 671.10594 148.28132 
L 677.527341 144.120578 
L 685.375719 138.742805 
L 695.364564 131.604604 
L 716.769232 115.943232 
L 743.168322 96.741558 
L 771.707879 76.278918 
L 815.230703 45.377122 
L 843.056772 25.693987 
L 843.056772 25.693987 
" clip-path="url(#p36b779ba47)" style="fill: none; stroke: #bc4749; stroke-width: 2; stroke-linecap: round"/>
   </g>
   <g id="line2d_182">
    <path d="M 619.008419 231.366719 
L 619.021249 231.195169 
L 619.734738 224.592197 
L 620.448227 219.544961 
L 621.161716 215.464689 
L 622.588693 209.106488 
L 624.015671 204.250351 
L 625.442649 200.3433 
L 626.869627 197.093489 
L 628.296605 194.327584 
L 629.723583 191.933848 
L 631.864049 188.879686 
L 634.004516 186.319938 
L 636.144983 184.13874 
L 638.28545 182.254248 
L 641.139405 180.099534 
L 643.993361 178.255314 
L 647.560806 176.260719 
L 651.841739 174.158939 
L 659.690118 170.635458 
L 666.825007 167.350182 
L 672.532918 164.483159 
L 678.24083 161.356527 
L 683.948741 157.980872 
L 690.370141 153.93234 
L 698.21852 148.715441 
L 708.920853 141.305823 
L 726.758077 128.634283 
L 788.831613 84.405493 
L 843.056772 46.037895 
L 843.056772 46.037895 
" clip-path="url(#p36b779ba47)" style="fill: none; stroke: #000000; stroke-width: 2; stroke-linecap: round"/>
   </g>
   <g id="line2d_183">
    <path d="M 486.312309 32.858827 
L 580.492847 99.234111 
L 598.33007 111.546898 
L 609.745893 119.164535 
L 617.594271 124.157892 
L 624.015671 128.002987 
L 629.723583 131.160348 
L 634.718005 133.655159 
L 638.998939 135.543822 
L 642.566383 136.908404 
L 646.133828 138.055633 
L 649.701273 138.961612 
L 653.268717 139.605638 
L 656.122673 139.921442 
L 658.976629 140.054183 
L 661.830584 140.001637 
L 664.68454 139.764688 
L 668.251985 139.21545 
L 671.819429 138.398147 
L 675.386874 137.331967 
L 678.954319 136.039897 
L 683.235252 134.226555 
L 687.516186 132.167947 
L 692.510608 129.511898 
L 698.21852 126.213007 
L 705.353409 121.800019 
L 713.915276 116.219364 
L 725.331099 108.492872 
L 742.454833 96.608915 
L 777.41579 72.013568 
L 843.056772 25.670775 
L 843.056772 25.670775 
" clip-path="url(#p36b779ba47)" style="fill: none; stroke-dasharray: 5.55,2.4; stroke-dashoffset: 0; stroke: #808080; stroke-width: 1.5; stroke-linecap: round"/>
   </g>
   <g id="patch_14">
    <path d="M 629.010094 179.265125 
L 629.010094 12.945125 
" style="fill: none; stroke: #878787; stroke-width: 0.7; stroke-linejoin: miter; stroke-linecap: square"/>
   </g>
   <g id="patch_15">
    <path d="M 846.010094 179.265125 
L 846.010094 12.945125 
" style="fill: none; stroke: #878787; stroke-width: 0.7; stroke-linejoin: miter; stroke-linecap: square"/>
   </g>
   <g id="patch_16">
    <path d="M 629.010094 179.265125 
L 846.010094 179.265125 
" style="fill: none; stroke: #878787; stroke-width: 0.7; stroke-linejoin: miter; stroke-linecap: square"/>
   </g>
   <g id="patch_17">
    <path d="M 629.010094 12.945125 
L 846.010094 12.945125 
" style="fill: none; stroke: #878787; stroke-width: 0.7; stroke-linejoin: miter; stroke-linecap: square"/>
   </g>
   <g id="legend_2">
    <g id="line2d_184">
     <path d="M 641.610094 31.43825 
L 648.610094 31.43825 
L 655.610094 31.43825 
" style="fill: none; stroke-dasharray: 5.55,2.4; stroke-dashoffset: 0; stroke: #808080; stroke-width: 1.5; stroke-linecap: round"/>
    </g>
    <g id="text_38">
     <!-- Large $\sigma$ expansion -->
     <g transform="translate(658.410094 36.12825) scale(0.14 -0.14)">
      <defs>
       <path id="Avenir-Book-4c" d="M 1075 422 
L 3187 422 
L 3187 0 
L 614 0 
L 614 4531 
L 1075 4531 
L 1075 422 
z
" transform="scale(0.015625)"/>
       <path id="Avenir-Book-61" d="M 2163 1491 
Q 2003 1491 1763 1475 
Q 1523 1459 1302 1398 
Q 1082 1338 925 1210 
Q 768 1082 768 858 
Q 768 710 829 604 
Q 890 499 992 432 
Q 1094 365 1219 336 
Q 1344 307 1472 307 
Q 1702 307 1872 384 
Q 2042 461 2157 592 
Q 2272 723 2326 899 
Q 2381 1075 2381 1274 
L 2381 1491 
L 2163 1491 
z
M 2381 1837 
L 2381 1914 
Q 2381 2688 1613 2688 
Q 1088 2688 698 2336 
L 442 2637 
Q 864 3072 1709 3072 
Q 1926 3072 2128 3008 
Q 2330 2944 2477 2813 
Q 2624 2682 2713 2483 
Q 2803 2285 2803 2010 
L 2803 672 
Q 2803 499 2819 310 
Q 2835 122 2854 0 
L 2445 0 
Q 2426 109 2416 237 
Q 2406 365 2406 486 
L 2394 486 
Q 2208 186 1955 54 
Q 1702 -77 1338 -77 
Q 1139 -77 953 -22 
Q 768 32 624 144 
Q 480 256 393 419 
Q 307 582 307 800 
Q 307 1165 496 1373 
Q 685 1581 969 1683 
Q 1254 1786 1577 1811 
Q 1901 1837 2170 1837 
L 2381 1837 
z
" transform="scale(0.015625)"/>
       <path id="Avenir-Book-72" d="M 506 2061 
Q 506 2259 496 2464 
Q 486 2669 480 2995 
L 896 2995 
L 896 2438 
L 909 2438 
Q 954 2560 1037 2672 
Q 1120 2784 1238 2873 
Q 1357 2963 1513 3017 
Q 1670 3072 1869 3072 
Q 2048 3072 2182 3034 
L 2099 2618 
Q 2016 2650 1856 2650 
Q 1613 2650 1440 2557 
Q 1267 2464 1152 2320 
Q 1037 2176 982 2009 
Q 928 1843 928 1690 
L 928 0 
L 506 0 
L 506 2061 
z
" transform="scale(0.015625)"/>
       <path id="Avenir-Book-67" d="M 768 1536 
Q 768 1299 854 1091 
Q 941 883 1091 726 
Q 1242 570 1443 477 
Q 1645 384 1882 384 
Q 2112 384 2320 467 
Q 2528 550 2688 700 
Q 2848 851 2934 1062 
Q 3021 1274 3014 1536 
Q 3014 1773 2937 1981 
Q 2861 2189 2713 2345 
Q 2566 2502 2355 2595 
Q 2144 2688 1882 2688 
Q 1645 2688 1443 2595 
Q 1242 2502 1091 2345 
Q 941 2189 854 1981 
Q 768 1773 768 1536 
z
M 691 -602 
Q 877 -851 1174 -1001 
Q 1472 -1152 1837 -1152 
Q 2157 -1152 2381 -1059 
Q 2605 -966 2742 -806 
Q 2880 -646 2941 -432 
Q 3002 -218 3002 26 
L 3002 563 
L 2989 563 
Q 2784 256 2489 128 
Q 2195 0 1869 0 
Q 1542 0 1257 115 
Q 973 230 761 432 
Q 550 634 428 915 
Q 307 1197 307 1523 
Q 307 1850 422 2131 
Q 538 2413 739 2624 
Q 941 2835 1219 2953 
Q 1498 3072 1830 3072 
Q 1965 3072 2115 3046 
Q 2266 3021 2416 2957 
Q 2566 2893 2713 2781 
Q 2861 2669 2989 2496 
L 3002 2496 
L 3002 2995 
L 3424 2995 
L 3424 26 
Q 3424 -218 3363 -493 
Q 3302 -768 3126 -998 
Q 2950 -1229 2636 -1382 
Q 2323 -1536 1818 -1536 
Q 1370 -1536 1018 -1389 
Q 666 -1242 378 -934 
L 691 -602 
z
" transform="scale(0.015625)"/>
       <path id="Avenir-Book-65" d="M 2790 1728 
Q 2790 2157 2534 2422 
Q 2278 2688 1818 2688 
Q 1613 2688 1421 2608 
Q 1229 2528 1085 2393 
Q 941 2259 854 2086 
Q 768 1914 768 1728 
L 2790 1728 
z
M 755 1382 
Q 774 1158 864 960 
Q 954 762 1101 618 
Q 1248 474 1440 390 
Q 1632 307 1856 307 
Q 2195 307 2441 464 
Q 2688 621 2816 826 
L 3142 557 
Q 2874 218 2550 70 
Q 2227 -77 1856 -77 
Q 1523 -77 1238 41 
Q 954 160 749 371 
Q 544 582 425 870 
Q 307 1158 307 1498 
Q 307 1837 422 2125 
Q 538 2413 742 2624 
Q 947 2835 1222 2953 
Q 1498 3072 1818 3072 
Q 2157 3072 2425 2950 
Q 2694 2829 2876 2627 
Q 3059 2426 3155 2154 
Q 3251 1882 3251 1574 
L 3251 1382 
L 755 1382 
z
" transform="scale(0.015625)"/>
       <path id="Avenir-Book-20" transform="scale(0.015625)"/>
       <path id="Avenir-Book-78" d="M 1235 1600 
L 147 2995 
L 723 2995 
L 1555 1875 
L 2349 2995 
L 2874 2995 
L 1830 1600 
L 3085 0 
L 2509 0 
L 1504 1312 
L 538 0 
L 0 0 
L 1235 1600 
z
" transform="scale(0.015625)"/>
       <path id="Avenir-Book-70" d="M 3194 1498 
Q 3194 1747 3114 1964 
Q 3034 2182 2886 2342 
Q 2739 2502 2531 2595 
Q 2323 2688 2061 2688 
Q 1798 2688 1580 2595 
Q 1363 2502 1203 2342 
Q 1043 2182 953 1964 
Q 864 1747 864 1498 
Q 864 1248 953 1030 
Q 1043 813 1203 653 
Q 1363 493 1580 400 
Q 1798 307 2061 307 
Q 2323 307 2531 400 
Q 2739 493 2886 653 
Q 3034 813 3114 1030 
Q 3194 1248 3194 1498 
z
M 461 2995 
L 883 2995 
L 883 2496 
L 896 2496 
Q 998 2650 1139 2758 
Q 1280 2867 1433 2937 
Q 1587 3008 1750 3040 
Q 1914 3072 2061 3072 
Q 2413 3072 2704 2953 
Q 2995 2835 3206 2624 
Q 3418 2413 3536 2125 
Q 3654 1837 3654 1498 
Q 3654 1158 3536 870 
Q 3418 582 3206 371 
Q 2995 160 2704 41 
Q 2413 -77 2061 -77 
Q 1914 -77 1750 -45 
Q 1587 -13 1433 57 
Q 1280 128 1139 237 
Q 998 346 896 499 
L 883 499 
L 883 -1843 
L 461 -1843 
L 461 2995 
z
" transform="scale(0.015625)"/>
       <path id="Avenir-Book-6e" d="M 864 2995 
Q 877 2874 880 2755 
Q 883 2637 883 2515 
L 896 2515 
Q 966 2637 1075 2739 
Q 1184 2842 1318 2915 
Q 1453 2989 1603 3030 
Q 1754 3072 1901 3072 
Q 2477 3072 2752 2768 
Q 3027 2464 3027 1901 
L 3027 0 
L 2605 0 
L 2605 1658 
Q 2605 2157 2432 2422 
Q 2259 2688 1792 2688 
Q 1760 2688 1613 2662 
Q 1466 2637 1302 2521 
Q 1139 2406 1011 2176 
Q 883 1946 883 1536 
L 883 0 
L 461 0 
L 461 2336 
Q 461 2458 451 2643 
Q 442 2829 429 2995 
L 864 2995 
z
" transform="scale(0.015625)"/>
       <path id="Avenir-Book-73" d="M 2048 2285 
Q 1952 2470 1792 2579 
Q 1632 2688 1402 2688 
Q 1293 2688 1181 2662 
Q 1069 2637 979 2582 
Q 890 2528 835 2445 
Q 781 2362 781 2240 
Q 781 2029 928 1933 
Q 1075 1837 1370 1766 
L 1798 1664 
Q 2112 1594 2320 1379 
Q 2528 1165 2528 845 
Q 2528 602 2429 426 
Q 2330 250 2166 138 
Q 2003 26 1792 -25 
Q 1581 -77 1363 -77 
Q 1018 -77 720 54 
Q 422 186 211 506 
L 576 755 
Q 704 550 899 428 
Q 1094 307 1363 307 
Q 1491 307 1619 336 
Q 1747 365 1846 425 
Q 1946 486 2006 582 
Q 2067 678 2067 806 
Q 2067 1030 1900 1129 
Q 1734 1229 1498 1286 
L 1088 1382 
Q 1011 1402 880 1446 
Q 749 1491 624 1580 
Q 499 1670 409 1814 
Q 320 1958 320 2170 
Q 320 2400 413 2573 
Q 506 2746 662 2854 
Q 819 2963 1017 3017 
Q 1216 3072 1427 3072 
Q 1741 3072 2009 2950 
Q 2278 2829 2426 2534 
L 2048 2285 
z
" transform="scale(0.015625)"/>
       <path id="Avenir-Book-69" d="M 1075 4147 
Q 1075 4013 979 3926 
Q 883 3840 768 3840 
Q 653 3840 557 3926 
Q 461 4013 461 4147 
Q 461 4282 557 4368 
Q 653 4454 768 4454 
Q 883 4454 979 4368 
Q 1075 4282 1075 4147 
z
M 979 0 
L 557 0 
L 557 2995 
L 979 2995 
L 979 0 
z
" transform="scale(0.015625)"/>
       <path id="Avenir-Book-6f" d="M 3027 1498 
Q 3027 1747 2947 1964 
Q 2867 2182 2720 2342 
Q 2573 2502 2365 2595 
Q 2157 2688 1894 2688 
Q 1632 2688 1424 2595 
Q 1216 2502 1072 2342 
Q 928 2182 848 1964 
Q 768 1747 768 1498 
Q 768 1248 848 1030 
Q 928 813 1072 653 
Q 1216 493 1424 400 
Q 1632 307 1894 307 
Q 2157 307 2365 400 
Q 2573 493 2720 653 
Q 2867 813 2947 1030 
Q 3027 1248 3027 1498 
z
M 3488 1498 
Q 3488 1158 3369 870 
Q 3251 582 3040 371 
Q 2829 160 2537 41 
Q 2246 -77 1894 -77 
Q 1549 -77 1257 41 
Q 966 160 755 371 
Q 544 582 425 870 
Q 307 1158 307 1498 
Q 307 1837 425 2125 
Q 544 2413 755 2624 
Q 966 2835 1257 2953 
Q 1549 3072 1894 3072 
Q 2246 3072 2537 2953 
Q 2829 2835 3040 2624 
Q 3251 2413 3369 2125 
Q 3488 1837 3488 1498 
z
" transform="scale(0.015625)"/>
      </defs>
      <use xlink:href="#Avenir-Book-4c" transform="translate(0 0.203125)"/>
      <use xlink:href="#Avenir-Book-61" transform="translate(49.999985 0.203125)"/>
      <use xlink:href="#Avenir-Book-72" transform="translate(101.899979 0.203125)"/>
      <use xlink:href="#Avenir-Book-67" transform="translate(135.099976 0.203125)"/>
      <use xlink:href="#Avenir-Book-65" transform="translate(196.199966 0.203125)"/>
      <use xlink:href="#Avenir-Book-20" transform="translate(251.799957 0.203125)"/>
      <use xlink:href="#Cmmi10-be" transform="translate(279.599945 0.203125)"/>
      <use xlink:href="#Avenir-Book-20" transform="translate(336.680023 0.203125)"/>
      <use xlink:href="#Avenir-Book-65" transform="translate(364.480011 0.203125)"/>
      <use xlink:href="#Avenir-Book-78" transform="translate(420.080002 0.203125)"/>
      <use xlink:href="#Avenir-Book-70" transform="translate(468.279999 0.203125)"/>
      <use xlink:href="#Avenir-Book-61" transform="translate(529.37999 0.203125)"/>
      <use xlink:href="#Avenir-Book-6e" transform="translate(581.279984 0.203125)"/>
      <use xlink:href="#Avenir-Book-73" transform="translate(636.879974 0.203125)"/>
      <use xlink:href="#Avenir-Book-69" transform="translate(679.479965 0.203125)"/>
      <use xlink:href="#Avenir-Book-6f" transform="translate(703.47995 0.203125)"/>
      <use xlink:href="#Avenir-Book-6e" transform="translate(762.779938 0.203125)"/>
     </g>
    </g>
   </g>
  </g>
 </g>
 <defs>
  <clipPath id="p5b2318b806">
   <rect x="64.810094" y="12.945125" width="217" height="166.32"/>
  </clipPath>
  <clipPath id="p2aa16085cf">
   <rect x="346.910094" y="12.945125" width="217" height="166.32"/>
  </clipPath>
  <clipPath id="p36b779ba47">
   <rect x="629.010094" y="12.945125" width="217" height="166.32"/>
  </clipPath>
 </defs>
</svg>
